999
Mask to DXF
  0
SECTION
  2
HEADER
  9
$ACADVER
  1
AC1006
  9
$INSBASE
 10
0.0
 20
0.0
 30
0.0
  9
$EXTMIN
 10
-1.0
 20
4.0
  9
$EXTMAX
 10
3.0
 20
4.0
  9
$LIMMIN
 10
-1.0
 20
4.0
  9
$LIMMAX
 10
3.0
 20
4.0
  0
ENDSEC
  0
SECTION
  2
TABLES
  0
TABLE
  2
LTYPE
 70
2
  0
LTYPE
  2
0
 70
0
  3
0
 72
65
 73
0
 40
0.0000
  0
ENDTAB
  0
TABLE
  2
LAYER
 70
5
  0
LAYER
  2
0
 70
0
  6
0
 62
7
  0
LAYER
  2
label
 70
0
  6
0
 62
3
  0
LAYER
  2
holes
 70
0
  6
0
 62
4
  0
LAYER
  2
outline
 70
0
  6
0
 62
5
  0
LAYER
  2
slits
 70
0
  6
0
 62
1
  0
ENDTAB
  0
ENDSEC
  0
SECTION
  2
ENTITIES
  0
LINE
  8
outline
  6
0
 10
1.5240000000000014
 20
0.0
 11
0.0
 21
1.5240000000000014
  0
LINE
  8
outline
  6
0
 10
0.0
 20
1.5240000000000014
 11
0.0
 21
92.456
  0
LINE
  8
outline
  6
0
 10
0.0
 20
92.456
 11
1.5240000000000014
 21
93.98
  0
LINE
  8
outline
  6
0
 10
1.5240000000000014
 20
93.98
 11
50.8
 21
93.98
  0
LINE
  8
outline
  6
0
 10
50.8
 20
93.98
 11
52.324
 21
92.456
  0
LINE
  8
outline
  6
0
 10
52.324
 20
92.456
 11
52.324
 21
13.462000000000005
  0
LINE
  8
outline
  6
0
 10
52.324
 20
13.462000000000005
 11
50.8
 21
11.938000000000004
  0
LINE
  8
outline
  6
0
 10
50.8
 20
11.938000000000004
 11
49.529999999999994
 21
11.938000000000004
  0
LINE
  8
outline
  6
0
 10
49.529999999999994
 20
11.938000000000004
 11
49.529999999999994
 21
1.5240000000000014
  0
LINE
  8
outline
  6
0
 10
49.529999999999994
 20
1.5240000000000014
 11
48.006
 21
0.0
  0
LINE
  8
outline
  6
0
 10
48.006
 20
0.0
 11
1.5240000000000014
 21
0.0
  0
CIRCLE
  8
holes
  6
0
 10
6.400799999999999
 20
86.4108
 40
1.5875
  0
CIRCLE
  8
holes
  6
0
 10
6.400799999999999
 20
5.435599999999999
 40
1.5875
  0
CIRCLE
  8
holes
  6
0
 10
46.050200000000004
 20
86.4108
 40
1.5875
  0
CIRCLE
  8
holes
  6
0
 10
46.050200000000004
 20
5.435599999999999
 40
1.5875
  0
CIRCLE
  8
holes
  6
0
 10
3.0988000000000024
 20
17.983200000000004
 40
1.2192
  0
LINE
  8
holes
  6
0
 10
24.98725
 20
88.3158
 11
24.98725
 21
84.5058
  0
LINE
  8
holes
  6
0
 10
24.98725
 20
84.5058
 11
27.438349999999996
 21
84.5058
  0
LINE
  8
holes
  6
0
 10
27.438349999999996
 20
84.5058
 11
27.438349999999996
 21
88.3158
  0
LINE
  8
holes
  6
0
 10
27.438349999999996
 20
88.3158
 11
24.98725
 21
88.3158
  0
TEXT
  8
label
  6
0
 10
21.351875
 20
10.334500000000004
 40
1.5875000000000001
  1
a1689z1
  0
SOLID
  8
label
  6
0
 10
11.63
 20
4.572000000000004
 11
11.63
 21
9.334500000000004
 12
13.23
 22
4.572000000000004
 13
13.23
 23
9.334500000000004
  0
SOLID
  8
label
  6
0
 10
13.43
 20
4.572000000000004
 11
13.43
 21
9.334500000000004
 12
13.83
 22
4.572000000000004
 13
13.83
 23
9.334500000000004
  0
SOLID
  8
label
  6
0
 10
14.03
 20
4.572000000000004
 11
14.03
 21
9.334500000000004
 12
14.229999999999999
 22
4.572000000000004
 13
14.229999999999999
 23
9.334500000000004
  0
SOLID
  8
label
  6
0
 10
14.629999999999999
 20
4.572000000000004
 11
14.629999999999999
 21
9.334500000000004
 12
14.829999999999998
 22
4.572000000000004
 13
14.829999999999998
 23
9.334500000000004
  0
SOLID
  8
label
  6
0
 10
15.229999999999999
 20
4.572000000000004
 11
15.229999999999999
 21
9.334500000000004
 12
15.429999999999998
 22
4.572000000000004
 13
15.429999999999998
 23
9.334500000000004
  0
SOLID
  8
label
  6
0
 10
15.629999999999997
 20
4.572000000000004
 11
15.629999999999997
 21
9.334500000000004
 12
15.829999999999997
 22
4.572000000000004
 13
15.829999999999997
 23
9.334500000000004
  0
SOLID
  8
label
  6
0
 10
16.229999999999997
 20
4.572000000000004
 11
16.229999999999997
 21
9.334500000000004
 12
16.429999999999996
 22
4.572000000000004
 13
16.429999999999996
 23
9.334500000000004
  0
SOLID
  8
label
  6
0
 10
16.629999999999995
 20
4.572000000000004
 11
16.629999999999995
 21
9.334500000000004
 12
16.829999999999995
 22
4.572000000000004
 13
16.829999999999995
 23
9.334500000000004
  0
SOLID
  8
label
  6
0
 10
17.029999999999994
 20
4.572000000000004
 11
17.029999999999994
 21
9.334500000000004
 12
17.429999999999993
 22
4.572000000000004
 13
17.429999999999993
 23
9.334500000000004
  0
SOLID
  8
label
  6
0
 10
17.629999999999992
 20
4.572000000000004
 11
17.629999999999992
 21
9.334500000000004
 12
17.82999999999999
 22
4.572000000000004
 13
17.82999999999999
 23
9.334500000000004
  0
SOLID
  8
label
  6
0
 10
18.22999999999999
 20
4.572000000000004
 11
18.22999999999999
 21
9.334500000000004
 12
18.42999999999999
 22
4.572000000000004
 13
18.42999999999999
 23
9.334500000000004
  0
SOLID
  8
label
  6
0
 10
18.829999999999988
 20
4.572000000000004
 11
18.829999999999988
 21
9.334500000000004
 12
19.029999999999987
 22
4.572000000000004
 13
19.029999999999987
 23
9.334500000000004
  0
SOLID
  8
label
  6
0
 10
19.229999999999986
 20
4.572000000000004
 11
19.229999999999986
 21
9.334500000000004
 12
19.629999999999985
 22
4.572000000000004
 13
19.629999999999985
 23
9.334500000000004
  0
SOLID
  8
label
  6
0
 10
19.829999999999984
 20
4.572000000000004
 11
19.829999999999984
 21
9.334500000000004
 12
20.029999999999983
 22
4.572000000000004
 13
20.029999999999983
 23
9.334500000000004
  0
SOLID
  8
label
  6
0
 10
20.229999999999983
 20
4.572000000000004
 11
20.229999999999983
 21
9.334500000000004
 12
20.429999999999982
 22
4.572000000000004
 13
20.429999999999982
 23
9.334500000000004
  0
SOLID
  8
label
  6
0
 10
20.82999999999998
 20
4.572000000000004
 11
20.82999999999998
 21
9.334500000000004
 12
21.02999999999998
 22
4.572000000000004
 13
21.02999999999998
 23
9.334500000000004
  0
SOLID
  8
label
  6
0
 10
21.22999999999998
 20
4.572000000000004
 11
21.22999999999998
 21
9.334500000000004
 12
21.42999999999998
 22
4.572000000000004
 13
21.42999999999998
 23
9.334500000000004
  0
SOLID
  8
label
  6
0
 10
21.829999999999977
 20
4.572000000000004
 11
21.829999999999977
 21
9.334500000000004
 12
22.229999999999976
 22
4.572000000000004
 13
22.229999999999976
 23
9.334500000000004
  0
SOLID
  8
label
  6
0
 10
22.629999999999974
 20
4.572000000000004
 11
22.629999999999974
 21
9.334500000000004
 12
22.829999999999973
 22
4.572000000000004
 13
22.829999999999973
 23
9.334500000000004
  0
SOLID
  8
label
  6
0
 10
23.029999999999973
 20
4.572000000000004
 11
23.029999999999973
 21
9.334500000000004
 12
23.229999999999972
 22
4.572000000000004
 13
23.229999999999972
 23
9.334500000000004
  0
SOLID
  8
label
  6
0
 10
23.42999999999997
 20
4.572000000000004
 11
23.42999999999997
 21
9.334500000000004
 12
23.62999999999997
 22
4.572000000000004
 13
23.62999999999997
 23
9.334500000000004
  0
SOLID
  8
label
  6
0
 10
24.02999999999997
 20
4.572000000000004
 11
24.02999999999997
 21
9.334500000000004
 12
24.22999999999997
 22
4.572000000000004
 13
24.22999999999997
 23
9.334500000000004
  0
SOLID
  8
label
  6
0
 10
24.429999999999968
 20
4.572000000000004
 11
24.429999999999968
 21
9.334500000000004
 12
24.829999999999966
 22
4.572000000000004
 13
24.829999999999966
 23
9.334500000000004
  0
SOLID
  8
label
  6
0
 10
25.029999999999966
 20
4.572000000000004
 11
25.029999999999966
 21
9.334500000000004
 12
25.229999999999965
 22
4.572000000000004
 13
25.229999999999965
 23
9.334500000000004
  0
SOLID
  8
label
  6
0
 10
25.629999999999963
 20
4.572000000000004
 11
25.629999999999963
 21
9.334500000000004
 12
25.829999999999963
 22
4.572000000000004
 13
25.829999999999963
 23
9.334500000000004
  0
SOLID
  8
label
  6
0
 10
26.029999999999962
 20
4.572000000000004
 11
26.029999999999962
 21
9.334500000000004
 12
26.22999999999996
 22
4.572000000000004
 13
26.22999999999996
 23
9.334500000000004
  0
SOLID
  8
label
  6
0
 10
26.42999999999996
 20
4.572000000000004
 11
26.42999999999996
 21
9.334500000000004
 12
26.62999999999996
 22
4.572000000000004
 13
26.62999999999996
 23
9.334500000000004
  0
SOLID
  8
label
  6
0
 10
27.02999999999996
 20
4.572000000000004
 11
27.02999999999996
 21
9.334500000000004
 12
27.429999999999957
 22
4.572000000000004
 13
27.429999999999957
 23
9.334500000000004
  0
SOLID
  8
label
  6
0
 10
27.629999999999956
 20
4.572000000000004
 11
27.629999999999956
 21
9.334500000000004
 12
27.829999999999956
 22
4.572000000000004
 13
27.829999999999956
 23
9.334500000000004
  0
SOLID
  8
label
  6
0
 10
28.229999999999954
 20
4.572000000000004
 11
28.229999999999954
 21
9.334500000000004
 12
28.429999999999954
 22
4.572000000000004
 13
28.429999999999954
 23
9.334500000000004
  0
SOLID
  8
label
  6
0
 10
28.629999999999953
 20
4.572000000000004
 11
28.629999999999953
 21
9.334500000000004
 12
28.829999999999952
 22
4.572000000000004
 13
28.829999999999952
 23
9.334500000000004
  0
SOLID
  8
label
  6
0
 10
29.02999999999995
 20
4.572000000000004
 11
29.02999999999995
 21
9.334500000000004
 12
29.42999999999995
 22
4.572000000000004
 13
29.42999999999995
 23
9.334500000000004
  0
SOLID
  8
label
  6
0
 10
29.82999999999995
 20
4.572000000000004
 11
29.82999999999995
 21
9.334500000000004
 12
30.029999999999948
 22
4.572000000000004
 13
30.029999999999948
 23
9.334500000000004
  0
SOLID
  8
label
  6
0
 10
30.429999999999946
 20
4.572000000000004
 11
30.429999999999946
 21
9.334500000000004
 12
30.629999999999946
 22
4.572000000000004
 13
30.629999999999946
 23
9.334500000000004
  0
SOLID
  8
label
  6
0
 10
30.829999999999945
 20
4.572000000000004
 11
30.829999999999945
 21
9.334500000000004
 12
31.029999999999944
 22
4.572000000000004
 13
31.029999999999944
 23
9.334500000000004
  0
SOLID
  8
label
  6
0
 10
31.229999999999944
 20
4.572000000000004
 11
31.229999999999944
 21
9.334500000000004
 12
31.429999999999943
 22
4.572000000000004
 13
31.429999999999943
 23
9.334500000000004
  0
SOLID
  8
label
  6
0
 10
31.82999999999994
 20
4.572000000000004
 11
31.82999999999994
 21
9.334500000000004
 12
32.029999999999944
 22
4.572000000000004
 13
32.029999999999944
 23
9.334500000000004
  0
SOLID
  8
label
  6
0
 10
32.22999999999995
 20
4.572000000000004
 11
32.22999999999995
 21
9.334500000000004
 12
32.629999999999946
 22
4.572000000000004
 13
32.629999999999946
 23
9.334500000000004
  0
SOLID
  8
label
  6
0
 10
32.82999999999995
 20
4.572000000000004
 11
32.82999999999995
 21
9.334500000000004
 12
33.02999999999995
 22
4.572000000000004
 13
33.02999999999995
 23
9.334500000000004
  0
SOLID
  8
label
  6
0
 10
33.229999999999954
 20
4.572000000000004
 11
33.229999999999954
 21
9.334500000000004
 12
33.42999999999996
 22
4.572000000000004
 13
33.42999999999996
 23
9.334500000000004
  0
SOLID
  8
label
  6
0
 10
33.829999999999956
 20
4.572000000000004
 11
33.829999999999956
 21
9.334500000000004
 12
34.02999999999996
 22
4.572000000000004
 13
34.02999999999996
 23
9.334500000000004
  0
SOLID
  8
label
  6
0
 10
34.22999999999996
 20
4.572000000000004
 11
34.22999999999996
 21
9.334500000000004
 12
34.62999999999996
 22
4.572000000000004
 13
34.62999999999996
 23
9.334500000000004
  0
SOLID
  8
label
  6
0
 10
34.82999999999996
 20
4.572000000000004
 11
34.82999999999996
 21
9.334500000000004
 12
35.029999999999966
 22
4.572000000000004
 13
35.029999999999966
 23
9.334500000000004
  0
SOLID
  8
label
  6
0
 10
35.429999999999964
 20
4.572000000000004
 11
35.429999999999964
 21
9.334500000000004
 12
35.62999999999997
 22
4.572000000000004
 13
35.62999999999997
 23
9.334500000000004
  0
SOLID
  8
label
  6
0
 10
36.029999999999966
 20
4.572000000000004
 11
36.029999999999966
 21
9.334500000000004
 12
36.22999999999997
 22
4.572000000000004
 13
36.22999999999997
 23
9.334500000000004
  0
SOLID
  8
label
  6
0
 10
36.42999999999997
 20
4.572000000000004
 11
36.42999999999997
 21
9.334500000000004
 12
36.629999999999974
 22
4.572000000000004
 13
36.629999999999974
 23
9.334500000000004
  0
SOLID
  8
label
  6
0
 10
36.629999999999974
 20
4.572000000000004
 11
36.629999999999974
 21
9.334500000000004
 12
38.229999999999976
 22
4.572000000000004
 13
38.229999999999976
 23
9.334500000000004
  0
LINE
  8
slits
  6
0
 10
40.658
 20
18.542
 11
40.658
 21
19.536
  0
LINE
  8
slits
  6
0
 10
40.658
 20
19.536
 11
40.990
 21
19.536
  0
LINE
  8
slits
  6
0
 10
40.990
 20
19.536
 11
40.990
 21
18.542
  0
LINE
  8
slits
  6
0
 10
40.990
 20
18.542
 11
40.658
 21
18.542
  0
LINE
  8
slits
  6
0
 10
45.368
 20
20.212
 11
45.368
 21
21.371
  0
LINE
  8
slits
  6
0
 10
45.368
 20
21.371
 11
45.484
 21
21.371
  0
LINE
  8
slits
  6
0
 10
45.484
 20
21.371
 11
45.484
 21
20.212
  0
LINE
  8
slits
  6
0
 10
45.484
 20
20.212
 11
45.368
 21
20.212
  0
LINE
  8
slits
  6
0
 10
44.576
 20
22.188
 11
44.576
 21
23.347
  0
LINE
  8
slits
  6
0
 10
44.576
 20
23.347
 11
44.692
 21
23.347
  0
LINE
  8
slits
  6
0
 10
44.692
 20
23.347
 11
44.692
 21
22.188
  0
LINE
  8
slits
  6
0
 10
44.692
 20
22.188
 11
44.576
 21
22.188
  0
LINE
  8
slits
  6
0
 10
35.526
 20
25.753
 11
35.526
 21
26.912
  0
LINE
  8
slits
  6
0
 10
35.526
 20
26.912
 11
35.641
 21
26.912
  0
LINE
  8
slits
  6
0
 10
35.641
 20
26.912
 11
35.641
 21
25.753
  0
LINE
  8
slits
  6
0
 10
35.641
 20
25.753
 11
35.526
 21
25.753
  0
LINE
  8
slits
  6
0
 10
32.313
 20
27.515
 11
32.313
 21
28.675
  0
LINE
  8
slits
  6
0
 10
32.313
 20
28.675
 11
32.429
 21
28.675
  0
LINE
  8
slits
  6
0
 10
32.429
 20
28.675
 11
32.429
 21
27.515
  0
LINE
  8
slits
  6
0
 10
32.429
 20
27.515
 11
32.313
 21
27.515
  0
LINE
  8
slits
  6
0
 10
42.617
 20
29.773
 11
42.617
 21
30.932
  0
LINE
  8
slits
  6
0
 10
42.617
 20
30.932
 11
42.733
 21
30.932
  0
LINE
  8
slits
  6
0
 10
42.733
 20
30.932
 11
42.733
 21
29.773
  0
LINE
  8
slits
  6
0
 10
42.733
 20
29.773
 11
42.617
 21
29.773
  0
LINE
  8
slits
  6
0
 10
44.078
 20
31.561
 11
44.078
 21
32.721
  0
LINE
  8
slits
  6
0
 10
44.078
 20
32.721
 11
44.194
 21
32.721
  0
LINE
  8
slits
  6
0
 10
44.194
 20
32.721
 11
44.194
 21
31.561
  0
LINE
  8
slits
  6
0
 10
44.194
 20
31.561
 11
44.078
 21
31.561
  0
LINE
  8
slits
  6
0
 10
31.767
 20
34.449
 11
31.767
 21
35.608
  0
LINE
  8
slits
  6
0
 10
31.767
 20
35.608
 11
31.883
 21
35.608
  0
LINE
  8
slits
  6
0
 10
31.883
 20
35.608
 11
31.883
 21
34.449
  0
LINE
  8
slits
  6
0
 10
31.883
 20
34.449
 11
31.767
 21
34.449
  0
LINE
  8
slits
  6
0
 10
33.735
 20
36.553
 11
33.735
 21
37.713
  0
LINE
  8
slits
  6
0
 10
33.735
 20
37.713
 11
33.850
 21
37.713
  0
LINE
  8
slits
  6
0
 10
33.850
 20
37.713
 11
33.850
 21
36.553
  0
LINE
  8
slits
  6
0
 10
33.850
 20
36.553
 11
33.735
 21
36.553
  0
LINE
  8
slits
  6
0
 10
41.218
 20
38.855
 11
41.218
 21
40.014
  0
LINE
  8
slits
  6
0
 10
41.218
 20
40.014
 11
41.334
 21
40.014
  0
LINE
  8
slits
  6
0
 10
41.334
 20
40.014
 11
41.334
 21
38.855
  0
LINE
  8
slits
  6
0
 10
41.334
 20
38.855
 11
41.218
 21
38.855
  0
LINE
  8
slits
  6
0
 10
40.945
 20
40.794
 11
40.945
 21
41.953
  0
LINE
  8
slits
  6
0
 10
40.945
 20
41.953
 11
41.061
 21
41.953
  0
LINE
  8
slits
  6
0
 10
41.061
 20
41.953
 11
41.061
 21
40.794
  0
LINE
  8
slits
  6
0
 10
41.061
 20
40.794
 11
40.945
 21
40.794
  0
LINE
  8
slits
  6
0
 10
34.025
 20
43.174
 11
34.025
 21
44.333
  0
LINE
  8
slits
  6
0
 10
34.025
 20
44.333
 11
34.141
 21
44.333
  0
LINE
  8
slits
  6
0
 10
34.141
 20
44.333
 11
34.141
 21
43.174
  0
LINE
  8
slits
  6
0
 10
34.141
 20
43.174
 11
34.025
 21
43.174
  0
LINE
  8
slits
  6
0
 10
42.009
 20
44.477
 11
42.009
 21
45.636
  0
LINE
  8
slits
  6
0
 10
42.009
 20
45.636
 11
42.125
 21
45.636
  0
LINE
  8
slits
  6
0
 10
42.125
 20
45.636
 11
42.125
 21
44.477
  0
LINE
  8
slits
  6
0
 10
42.125
 20
44.477
 11
42.009
 21
44.477
  0
LINE
  8
slits
  6
0
 10
38.438
 20
46.401
 11
38.438
 21
47.561
  0
LINE
  8
slits
  6
0
 10
38.438
 20
47.561
 11
38.554
 21
47.561
  0
LINE
  8
slits
  6
0
 10
38.554
 20
47.561
 11
38.554
 21
46.401
  0
LINE
  8
slits
  6
0
 10
38.554
 20
46.401
 11
38.438
 21
46.401
  0
LINE
  8
slits
  6
0
 10
45.363
 20
48.346
 11
45.363
 21
49.506
  0
LINE
  8
slits
  6
0
 10
45.363
 20
49.506
 11
45.479
 21
49.506
  0
LINE
  8
slits
  6
0
 10
45.479
 20
49.506
 11
45.479
 21
48.346
  0
LINE
  8
slits
  6
0
 10
45.479
 20
48.346
 11
45.363
 21
48.346
  0
LINE
  8
slits
  6
0
 10
44.178
 20
50.467
 11
44.178
 21
51.626
  0
LINE
  8
slits
  6
0
 10
44.178
 20
51.626
 11
44.294
 21
51.626
  0
LINE
  8
slits
  6
0
 10
44.294
 20
51.626
 11
44.294
 21
50.467
  0
LINE
  8
slits
  6
0
 10
44.294
 20
50.467
 11
44.178
 21
50.467
  0
LINE
  8
slits
  6
0
 10
31.853
 20
53.194
 11
31.853
 21
54.353
  0
LINE
  8
slits
  6
0
 10
31.853
 20
54.353
 11
31.969
 21
54.353
  0
LINE
  8
slits
  6
0
 10
31.969
 20
54.353
 11
31.969
 21
53.194
  0
LINE
  8
slits
  6
0
 10
31.969
 20
53.194
 11
31.853
 21
53.194
  0
LINE
  8
slits
  6
0
 10
39.392
 20
55.590
 11
39.392
 21
56.749
  0
LINE
  8
slits
  6
0
 10
39.392
 20
56.749
 11
39.508
 21
56.749
  0
LINE
  8
slits
  6
0
 10
39.508
 20
56.749
 11
39.508
 21
55.590
  0
LINE
  8
slits
  6
0
 10
39.508
 20
55.590
 11
39.392
 21
55.590
  0
LINE
  8
slits
  6
0
 10
35.948
 20
57.970
 11
35.948
 21
59.129
  0
LINE
  8
slits
  6
0
 10
35.948
 20
59.129
 11
36.064
 21
59.129
  0
LINE
  8
slits
  6
0
 10
36.064
 20
59.129
 11
36.064
 21
57.970
  0
LINE
  8
slits
  6
0
 10
36.064
 20
57.970
 11
35.948
 21
57.970
  0
LINE
  8
slits
  6
0
 10
40.164
 20
59.875
 11
40.164
 21
60.869
  0
LINE
  8
slits
  6
0
 10
40.164
 20
60.869
 11
40.495
 21
60.869
  0
LINE
  8
slits
  6
0
 10
40.495
 20
60.869
 11
40.495
 21
59.875
  0
LINE
  8
slits
  6
0
 10
40.495
 20
59.875
 11
40.164
 21
59.875
  0
LINE
  8
slits
  6
0
 10
28.599
 20
66.691
 11
28.599
 21
67.850
  0
LINE
  8
slits
  6
0
 10
28.599
 20
67.850
 11
28.715
 21
67.850
  0
LINE
  8
slits
  6
0
 10
28.715
 20
67.850
 11
28.715
 21
66.691
  0
LINE
  8
slits
  6
0
 10
28.715
 20
66.691
 11
28.599
 21
66.691
  0
LINE
  8
slits
  6
0
 10
28.376
 20
67.942
 11
28.376
 21
68.936
  0
LINE
  8
slits
  6
0
 10
28.376
 20
68.936
 11
28.707
 21
68.936
  0
LINE
  8
slits
  6
0
 10
28.707
 20
68.936
 11
28.707
 21
67.942
  0
LINE
  8
slits
  6
0
 10
28.707
 20
67.942
 11
28.376
 21
67.942
  0
LINE
  8
slits
  6
0
 10
26.186
 20
69.091
 11
26.186
 21
70.250
  0
LINE
  8
slits
  6
0
 10
26.186
 20
70.250
 11
26.302
 21
70.250
  0
LINE
  8
slits
  6
0
 10
26.302
 20
70.250
 11
26.302
 21
69.091
  0
LINE
  8
slits
  6
0
 10
26.302
 20
69.091
 11
26.186
 21
69.091
  0
LINE
  8
slits
  6
0
 10
16.072
 20
71.928
 11
16.072
 21
73.087
  0
LINE
  8
slits
  6
0
 10
16.072
 20
73.087
 11
16.188
 21
73.087
  0
LINE
  8
slits
  6
0
 10
16.188
 20
73.087
 11
16.188
 21
71.928
  0
LINE
  8
slits
  6
0
 10
16.188
 20
71.928
 11
16.072
 21
71.928
  0
LINE
  8
slits
  6
0
 10
22.120
 20
74.652
 11
22.120
 21
75.646
  0
LINE
  8
slits
  6
0
 10
22.120
 20
75.646
 11
22.451
 21
75.646
  0
LINE
  8
slits
  6
0
 10
22.451
 20
75.646
 11
22.451
 21
74.652
  0
LINE
  8
slits
  6
0
 10
22.451
 20
74.652
 11
22.120
 21
74.652
  0
LINE
  8
slits
  6
0
 10
24.131
 20
78.553
 11
24.131
 21
79.712
  0
LINE
  8
slits
  6
0
 10
24.131
 20
79.712
 11
24.247
 21
79.712
  0
LINE
  8
slits
  6
0
 10
24.247
 20
79.712
 11
24.247
 21
78.553
  0
LINE
  8
slits
  6
0
 10
24.247
 20
78.553
 11
24.131
 21
78.553
  0
ENDSEC
  0
EOF
