999
Mask to DXF
  0
SECTION
  2
HEADER
  9
$ACADVER
  1
AC1006
  9
$INSBASE
 10
0.0
 20
0.0
 30
0.0
  9
$EXTMIN
 10
-1.0
 20
4.0
  9
$EXTMAX
 10
3.0
 20
4.0
  9
$LIMMIN
 10
-1.0
 20
4.0
  9
$LIMMAX
 10
3.0
 20
4.0
  0
ENDSEC
  0
SECTION
  2
TABLES
  0
TABLE
  2
LTYPE
 70
2
  0
LTYPE
  2
0
 70
0
  3
0
 72
65
 73
0
 40
0.0000
  0
ENDTAB
  0
TABLE
  2
LAYER
 70
5
  0
LAYER
  2
0
 70
0
  6
0
 62
7
  0
LAYER
  2
label
 70
0
  6
0
 62
3
  0
LAYER
  2
holes
 70
0
  6
0
 62
4
  0
LAYER
  2
outline
 70
0
  6
0
 62
5
  0
LAYER
  2
slits
 70
0
  6
0
 62
1
  0
ENDTAB
  0
ENDSEC
  0
SECTION
  2
ENTITIES
  0
LINE
  8
outline
  6
0
 10
1.5240000000000014
 20
0.0
 11
0.0
 21
1.5240000000000014
  0
LINE
  8
outline
  6
0
 10
0.0
 20
1.5240000000000014
 11
0.0
 21
92.456
  0
LINE
  8
outline
  6
0
 10
0.0
 20
92.456
 11
1.5240000000000014
 21
93.98
  0
LINE
  8
outline
  6
0
 10
1.5240000000000014
 20
93.98
 11
50.8
 21
93.98
  0
LINE
  8
outline
  6
0
 10
50.8
 20
93.98
 11
52.324
 21
92.456
  0
LINE
  8
outline
  6
0
 10
52.324
 20
92.456
 11
52.324
 21
13.462000000000005
  0
LINE
  8
outline
  6
0
 10
52.324
 20
13.462000000000005
 11
50.8
 21
11.938000000000004
  0
LINE
  8
outline
  6
0
 10
50.8
 20
11.938000000000004
 11
49.529999999999994
 21
11.938000000000004
  0
LINE
  8
outline
  6
0
 10
49.529999999999994
 20
11.938000000000004
 11
49.529999999999994
 21
1.5240000000000014
  0
LINE
  8
outline
  6
0
 10
49.529999999999994
 20
1.5240000000000014
 11
48.006
 21
0.0
  0
LINE
  8
outline
  6
0
 10
48.006
 20
0.0
 11
1.5240000000000014
 21
0.0
  0
CIRCLE
  8
holes
  6
0
 10
6.400799999999999
 20
86.4108
 40
1.5875
  0
CIRCLE
  8
holes
  6
0
 10
6.400799999999999
 20
5.435599999999999
 40
1.5875
  0
CIRCLE
  8
holes
  6
0
 10
46.050200000000004
 20
86.4108
 40
1.5875
  0
CIRCLE
  8
holes
  6
0
 10
46.050200000000004
 20
5.435599999999999
 40
1.5875
  0
CIRCLE
  8
holes
  6
0
 10
3.0988000000000024
 20
17.983200000000004
 40
1.2192
  0
LINE
  8
holes
  6
0
 10
24.98725
 20
88.3158
 11
24.98725
 21
84.5058
  0
LINE
  8
holes
  6
0
 10
24.98725
 20
84.5058
 11
27.438349999999996
 21
84.5058
  0
LINE
  8
holes
  6
0
 10
27.438349999999996
 20
84.5058
 11
27.438349999999996
 21
88.3158
  0
LINE
  8
holes
  6
0
 10
27.438349999999996
 20
88.3158
 11
24.98725
 21
88.3158
  0
TEXT
  8
label
  6
0
 10
21.351875
 20
10.334500000000004
 40
1.5875000000000001
  1
egsel21
  0
SOLID
  8
label
  6
0
 10
11.63
 20
4.572000000000004
 11
11.63
 21
9.334500000000004
 12
13.23
 22
4.572000000000004
 13
13.23
 23
9.334500000000004
  0
SOLID
  8
label
  6
0
 10
13.43
 20
4.572000000000004
 11
13.43
 21
9.334500000000004
 12
13.83
 22
4.572000000000004
 13
13.83
 23
9.334500000000004
  0
SOLID
  8
label
  6
0
 10
14.03
 20
4.572000000000004
 11
14.03
 21
9.334500000000004
 12
14.229999999999999
 22
4.572000000000004
 13
14.229999999999999
 23
9.334500000000004
  0
SOLID
  8
label
  6
0
 10
14.629999999999999
 20
4.572000000000004
 11
14.629999999999999
 21
9.334500000000004
 12
14.829999999999998
 22
4.572000000000004
 13
14.829999999999998
 23
9.334500000000004
  0
SOLID
  8
label
  6
0
 10
15.229999999999999
 20
4.572000000000004
 11
15.229999999999999
 21
9.334500000000004
 12
15.429999999999998
 22
4.572000000000004
 13
15.429999999999998
 23
9.334500000000004
  0
SOLID
  8
label
  6
0
 10
15.629999999999997
 20
4.572000000000004
 11
15.629999999999997
 21
9.334500000000004
 12
15.829999999999997
 22
4.572000000000004
 13
15.829999999999997
 23
9.334500000000004
  0
SOLID
  8
label
  6
0
 10
16.229999999999997
 20
4.572000000000004
 11
16.229999999999997
 21
9.334500000000004
 12
16.429999999999996
 22
4.572000000000004
 13
16.429999999999996
 23
9.334500000000004
  0
SOLID
  8
label
  6
0
 10
16.629999999999995
 20
4.572000000000004
 11
16.629999999999995
 21
9.334500000000004
 12
16.829999999999995
 22
4.572000000000004
 13
16.829999999999995
 23
9.334500000000004
  0
SOLID
  8
label
  6
0
 10
17.229999999999993
 20
4.572000000000004
 11
17.229999999999993
 21
9.334500000000004
 12
17.629999999999992
 22
4.572000000000004
 13
17.629999999999992
 23
9.334500000000004
  0
SOLID
  8
label
  6
0
 10
17.82999999999999
 20
4.572000000000004
 11
17.82999999999999
 21
9.334500000000004
 12
18.02999999999999
 22
4.572000000000004
 13
18.02999999999999
 23
9.334500000000004
  0
SOLID
  8
label
  6
0
 10
18.22999999999999
 20
4.572000000000004
 11
18.22999999999999
 21
9.334500000000004
 12
18.42999999999999
 22
4.572000000000004
 13
18.42999999999999
 23
9.334500000000004
  0
SOLID
  8
label
  6
0
 10
18.62999999999999
 20
4.572000000000004
 11
18.62999999999999
 21
9.334500000000004
 12
18.829999999999988
 22
4.572000000000004
 13
18.829999999999988
 23
9.334500000000004
  0
SOLID
  8
label
  6
0
 10
19.029999999999987
 20
4.572000000000004
 11
19.029999999999987
 21
9.334500000000004
 12
19.229999999999986
 22
4.572000000000004
 13
19.229999999999986
 23
9.334500000000004
  0
SOLID
  8
label
  6
0
 10
19.429999999999986
 20
4.572000000000004
 11
19.429999999999986
 21
9.334500000000004
 12
19.829999999999984
 22
4.572000000000004
 13
19.829999999999984
 23
9.334500000000004
  0
SOLID
  8
label
  6
0
 10
20.229999999999983
 20
4.572000000000004
 11
20.229999999999983
 21
9.334500000000004
 12
20.429999999999982
 22
4.572000000000004
 13
20.429999999999982
 23
9.334500000000004
  0
SOLID
  8
label
  6
0
 10
20.82999999999998
 20
4.572000000000004
 11
20.82999999999998
 21
9.334500000000004
 12
21.02999999999998
 22
4.572000000000004
 13
21.02999999999998
 23
9.334500000000004
  0
SOLID
  8
label
  6
0
 10
21.22999999999998
 20
4.572000000000004
 11
21.22999999999998
 21
9.334500000000004
 12
21.42999999999998
 22
4.572000000000004
 13
21.42999999999998
 23
9.334500000000004
  0
SOLID
  8
label
  6
0
 10
21.829999999999977
 20
4.572000000000004
 11
21.829999999999977
 21
9.334500000000004
 12
22.029999999999976
 22
4.572000000000004
 13
22.029999999999976
 23
9.334500000000004
  0
SOLID
  8
label
  6
0
 10
22.229999999999976
 20
4.572000000000004
 11
22.229999999999976
 21
9.334500000000004
 12
22.429999999999975
 22
4.572000000000004
 13
22.429999999999975
 23
9.334500000000004
  0
SOLID
  8
label
  6
0
 10
22.829999999999973
 20
4.572000000000004
 11
22.829999999999973
 21
9.334500000000004
 12
23.229999999999972
 22
4.572000000000004
 13
23.229999999999972
 23
9.334500000000004
  0
SOLID
  8
label
  6
0
 10
23.42999999999997
 20
4.572000000000004
 11
23.42999999999997
 21
9.334500000000004
 12
23.62999999999997
 22
4.572000000000004
 13
23.62999999999997
 23
9.334500000000004
  0
SOLID
  8
label
  6
0
 10
24.02999999999997
 20
4.572000000000004
 11
24.02999999999997
 21
9.334500000000004
 12
24.22999999999997
 22
4.572000000000004
 13
24.22999999999997
 23
9.334500000000004
  0
SOLID
  8
label
  6
0
 10
24.429999999999968
 20
4.572000000000004
 11
24.429999999999968
 21
9.334500000000004
 12
24.629999999999967
 22
4.572000000000004
 13
24.629999999999967
 23
9.334500000000004
  0
SOLID
  8
label
  6
0
 10
25.029999999999966
 20
4.572000000000004
 11
25.029999999999966
 21
9.334500000000004
 12
25.429999999999964
 22
4.572000000000004
 13
25.429999999999964
 23
9.334500000000004
  0
SOLID
  8
label
  6
0
 10
25.629999999999963
 20
4.572000000000004
 11
25.629999999999963
 21
9.334500000000004
 12
25.829999999999963
 22
4.572000000000004
 13
25.829999999999963
 23
9.334500000000004
  0
SOLID
  8
label
  6
0
 10
26.029999999999962
 20
4.572000000000004
 11
26.029999999999962
 21
9.334500000000004
 12
26.22999999999996
 22
4.572000000000004
 13
26.22999999999996
 23
9.334500000000004
  0
SOLID
  8
label
  6
0
 10
26.42999999999996
 20
4.572000000000004
 11
26.42999999999996
 21
9.334500000000004
 12
26.62999999999996
 22
4.572000000000004
 13
26.62999999999996
 23
9.334500000000004
  0
SOLID
  8
label
  6
0
 10
27.02999999999996
 20
4.572000000000004
 11
27.02999999999996
 21
9.334500000000004
 12
27.229999999999958
 22
4.572000000000004
 13
27.229999999999958
 23
9.334500000000004
  0
SOLID
  8
label
  6
0
 10
27.429999999999957
 20
4.572000000000004
 11
27.429999999999957
 21
9.334500000000004
 12
27.629999999999956
 22
4.572000000000004
 13
27.629999999999956
 23
9.334500000000004
  0
SOLID
  8
label
  6
0
 10
27.829999999999956
 20
4.572000000000004
 11
27.829999999999956
 21
9.334500000000004
 12
28.229999999999954
 22
4.572000000000004
 13
28.229999999999954
 23
9.334500000000004
  0
SOLID
  8
label
  6
0
 10
28.629999999999953
 20
4.572000000000004
 11
28.629999999999953
 21
9.334500000000004
 12
28.829999999999952
 22
4.572000000000004
 13
28.829999999999952
 23
9.334500000000004
  0
SOLID
  8
label
  6
0
 10
29.02999999999995
 20
4.572000000000004
 11
29.02999999999995
 21
9.334500000000004
 12
29.22999999999995
 22
4.572000000000004
 13
29.22999999999995
 23
9.334500000000004
  0
SOLID
  8
label
  6
0
 10
29.62999999999995
 20
4.572000000000004
 11
29.62999999999995
 21
9.334500000000004
 12
30.029999999999948
 22
4.572000000000004
 13
30.029999999999948
 23
9.334500000000004
  0
SOLID
  8
label
  6
0
 10
30.229999999999947
 20
4.572000000000004
 11
30.229999999999947
 21
9.334500000000004
 12
30.429999999999946
 22
4.572000000000004
 13
30.429999999999946
 23
9.334500000000004
  0
SOLID
  8
label
  6
0
 10
30.629999999999946
 20
4.572000000000004
 11
30.629999999999946
 21
9.334500000000004
 12
30.829999999999945
 22
4.572000000000004
 13
30.829999999999945
 23
9.334500000000004
  0
SOLID
  8
label
  6
0
 10
31.229999999999944
 20
4.572000000000004
 11
31.229999999999944
 21
9.334500000000004
 12
31.429999999999943
 22
4.572000000000004
 13
31.429999999999943
 23
9.334500000000004
  0
SOLID
  8
label
  6
0
 10
31.82999999999994
 20
4.572000000000004
 11
31.82999999999994
 21
9.334500000000004
 12
32.029999999999944
 22
4.572000000000004
 13
32.029999999999944
 23
9.334500000000004
  0
SOLID
  8
label
  6
0
 10
32.22999999999995
 20
4.572000000000004
 11
32.22999999999995
 21
9.334500000000004
 12
32.629999999999946
 22
4.572000000000004
 13
32.629999999999946
 23
9.334500000000004
  0
SOLID
  8
label
  6
0
 10
32.82999999999995
 20
4.572000000000004
 11
32.82999999999995
 21
9.334500000000004
 12
33.02999999999995
 22
4.572000000000004
 13
33.02999999999995
 23
9.334500000000004
  0
SOLID
  8
label
  6
0
 10
33.229999999999954
 20
4.572000000000004
 11
33.229999999999954
 21
9.334500000000004
 12
33.42999999999996
 22
4.572000000000004
 13
33.42999999999996
 23
9.334500000000004
  0
SOLID
  8
label
  6
0
 10
33.829999999999956
 20
4.572000000000004
 11
33.829999999999956
 21
9.334500000000004
 12
34.02999999999996
 22
4.572000000000004
 13
34.02999999999996
 23
9.334500000000004
  0
SOLID
  8
label
  6
0
 10
34.22999999999996
 20
4.572000000000004
 11
34.22999999999996
 21
9.334500000000004
 12
34.62999999999996
 22
4.572000000000004
 13
34.62999999999996
 23
9.334500000000004
  0
SOLID
  8
label
  6
0
 10
34.82999999999996
 20
4.572000000000004
 11
34.82999999999996
 21
9.334500000000004
 12
35.029999999999966
 22
4.572000000000004
 13
35.029999999999966
 23
9.334500000000004
  0
SOLID
  8
label
  6
0
 10
35.429999999999964
 20
4.572000000000004
 11
35.429999999999964
 21
9.334500000000004
 12
35.62999999999997
 22
4.572000000000004
 13
35.62999999999997
 23
9.334500000000004
  0
SOLID
  8
label
  6
0
 10
36.029999999999966
 20
4.572000000000004
 11
36.029999999999966
 21
9.334500000000004
 12
36.22999999999997
 22
4.572000000000004
 13
36.22999999999997
 23
9.334500000000004
  0
SOLID
  8
label
  6
0
 10
36.42999999999997
 20
4.572000000000004
 11
36.42999999999997
 21
9.334500000000004
 12
36.629999999999974
 22
4.572000000000004
 13
36.629999999999974
 23
9.334500000000004
  0
SOLID
  8
label
  6
0
 10
36.629999999999974
 20
4.572000000000004
 11
36.629999999999974
 21
9.334500000000004
 12
38.229999999999976
 22
4.572000000000004
 13
38.229999999999976
 23
9.334500000000004
  0
LINE
  8
slits
  6
0
 10
7.144
 20
14.735
 11
7.144
 21
15.894
  0
LINE
  8
slits
  6
0
 10
7.144
 20
15.894
 11
7.260
 21
15.894
  0
LINE
  8
slits
  6
0
 10
7.260
 20
15.894
 11
7.260
 21
14.735
  0
LINE
  8
slits
  6
0
 10
7.260
 20
14.735
 11
7.144
 21
14.735
  0
LINE
  8
slits
  6
0
 10
21.826
 20
16.339
 11
21.826
 21
17.498
  0
LINE
  8
slits
  6
0
 10
21.826
 20
17.498
 11
21.942
 21
17.498
  0
LINE
  8
slits
  6
0
 10
21.942
 20
17.498
 11
21.942
 21
16.339
  0
LINE
  8
slits
  6
0
 10
21.942
 20
16.339
 11
21.826
 21
16.339
  0
LINE
  8
slits
  6
0
 10
42.180
 20
18.999
 11
42.180
 21
19.827
  0
LINE
  8
slits
  6
0
 10
42.180
 20
19.827
 11
43.008
 21
19.827
  0
LINE
  8
slits
  6
0
 10
43.008
 20
19.827
 11
43.008
 21
18.999
  0
LINE
  8
slits
  6
0
 10
43.008
 20
18.999
 11
42.180
 21
18.999
  0
LINE
  8
slits
  6
0
 10
44.128
 20
20.657
 11
44.128
 21
21.817
  0
LINE
  8
slits
  6
0
 10
44.128
 20
21.817
 11
44.244
 21
21.817
  0
LINE
  8
slits
  6
0
 10
44.244
 20
21.817
 11
44.244
 21
20.657
  0
LINE
  8
slits
  6
0
 10
44.244
 20
20.657
 11
44.128
 21
20.657
  0
LINE
  8
slits
  6
0
 10
29.167
 20
24.007
 11
29.167
 21
25.166
  0
LINE
  8
slits
  6
0
 10
29.167
 20
25.166
 11
29.283
 21
25.166
  0
LINE
  8
slits
  6
0
 10
29.283
 20
25.166
 11
29.283
 21
24.007
  0
LINE
  8
slits
  6
0
 10
29.283
 20
24.007
 11
29.167
 21
24.007
  0
LINE
  8
slits
  6
0
 10
38.841
 20
25.719
 11
38.841
 21
26.878
  0
LINE
  8
slits
  6
0
 10
38.841
 20
26.878
 11
38.957
 21
26.878
  0
LINE
  8
slits
  6
0
 10
38.957
 20
26.878
 11
38.957
 21
25.719
  0
LINE
  8
slits
  6
0
 10
38.957
 20
25.719
 11
38.841
 21
25.719
  0
LINE
  8
slits
  6
0
 10
39.818
 20
27.676
 11
39.818
 21
28.835
  0
LINE
  8
slits
  6
0
 10
39.818
 20
28.835
 11
39.934
 21
28.835
  0
LINE
  8
slits
  6
0
 10
39.934
 20
28.835
 11
39.934
 21
27.676
  0
LINE
  8
slits
  6
0
 10
39.934
 20
27.676
 11
39.818
 21
27.676
  0
LINE
  8
slits
  6
0
 10
41.850
 20
30.083
 11
41.850
 21
31.243
  0
LINE
  8
slits
  6
0
 10
41.850
 20
31.243
 11
41.966
 21
31.243
  0
LINE
  8
slits
  6
0
 10
41.966
 20
31.243
 11
41.966
 21
30.083
  0
LINE
  8
slits
  6
0
 10
41.966
 20
30.083
 11
41.850
 21
30.083
  0
LINE
  8
slits
  6
0
 10
16.599
 20
31.811
 11
16.599
 21
32.971
  0
LINE
  8
slits
  6
0
 10
16.599
 20
32.971
 11
16.715
 21
32.971
  0
LINE
  8
slits
  6
0
 10
16.715
 20
32.971
 11
16.715
 21
31.811
  0
LINE
  8
slits
  6
0
 10
16.715
 20
31.811
 11
16.599
 21
31.811
  0
LINE
  8
slits
  6
0
 10
33.654
 20
33.505
 11
33.654
 21
34.665
  0
LINE
  8
slits
  6
0
 10
33.654
 20
34.665
 11
33.770
 21
34.665
  0
LINE
  8
slits
  6
0
 10
33.770
 20
34.665
 11
33.770
 21
33.505
  0
LINE
  8
slits
  6
0
 10
33.770
 20
33.505
 11
33.654
 21
33.505
  0
LINE
  8
slits
  6
0
 10
41.409
 20
35.665
 11
41.409
 21
36.824
  0
LINE
  8
slits
  6
0
 10
41.409
 20
36.824
 11
41.524
 21
36.824
  0
LINE
  8
slits
  6
0
 10
41.524
 20
36.824
 11
41.524
 21
35.665
  0
LINE
  8
slits
  6
0
 10
41.524
 20
35.665
 11
41.409
 21
35.665
  0
LINE
  8
slits
  6
0
 10
25.551
 20
37.755
 11
25.551
 21
38.915
  0
LINE
  8
slits
  6
0
 10
25.551
 20
38.915
 11
25.667
 21
38.915
  0
LINE
  8
slits
  6
0
 10
25.667
 20
38.915
 11
25.667
 21
37.755
  0
LINE
  8
slits
  6
0
 10
25.667
 20
37.755
 11
25.551
 21
37.755
  0
LINE
  8
slits
  6
0
 10
13.558
 20
41.045
 11
13.558
 21
42.205
  0
LINE
  8
slits
  6
0
 10
13.558
 20
42.205
 11
13.674
 21
42.205
  0
LINE
  8
slits
  6
0
 10
13.674
 20
42.205
 11
13.674
 21
41.045
  0
LINE
  8
slits
  6
0
 10
13.674
 20
41.045
 11
13.558
 21
41.045
  0
LINE
  8
slits
  6
0
 10
36.136
 20
48.431
 11
36.136
 21
49.590
  0
LINE
  8
slits
  6
0
 10
36.136
 20
49.590
 11
36.252
 21
49.590
  0
LINE
  8
slits
  6
0
 10
36.252
 20
49.590
 11
36.252
 21
48.431
  0
LINE
  8
slits
  6
0
 10
36.252
 20
48.431
 11
36.136
 21
48.431
  0
LINE
  8
slits
  6
0
 10
43.609
 20
51.809
 11
43.609
 21
52.968
  0
LINE
  8
slits
  6
0
 10
43.609
 20
52.968
 11
43.725
 21
52.968
  0
LINE
  8
slits
  6
0
 10
43.725
 20
52.968
 11
43.725
 21
51.809
  0
LINE
  8
slits
  6
0
 10
43.725
 20
51.809
 11
43.609
 21
51.809
  0
LINE
  8
slits
  6
0
 10
26.141
 20
53.507
 11
26.141
 21
54.335
  0
LINE
  8
slits
  6
0
 10
26.141
 20
54.335
 11
26.969
 21
54.335
  0
LINE
  8
slits
  6
0
 10
26.969
 20
54.335
 11
26.969
 21
53.507
  0
LINE
  8
slits
  6
0
 10
26.969
 20
53.507
 11
26.141
 21
53.507
  0
LINE
  8
slits
  6
0
 10
37.592
 20
56.287
 11
37.592
 21
57.115
  0
LINE
  8
slits
  6
0
 10
37.592
 20
57.115
 11
38.420
 21
57.115
  0
LINE
  8
slits
  6
0
 10
38.420
 20
57.115
 11
38.420
 21
56.287
  0
LINE
  8
slits
  6
0
 10
38.420
 20
56.287
 11
37.592
 21
56.287
  0
LINE
  8
slits
  6
0
 10
40.663
 20
57.783
 11
40.663
 21
58.943
  0
LINE
  8
slits
  6
0
 10
40.663
 20
58.943
 11
40.779
 21
58.943
  0
LINE
  8
slits
  6
0
 10
40.779
 20
58.943
 11
40.779
 21
57.783
  0
LINE
  8
slits
  6
0
 10
40.779
 20
57.783
 11
40.663
 21
57.783
  0
LINE
  8
slits
  6
0
 10
21.852
 20
59.309
 11
21.852
 21
60.137
  0
LINE
  8
slits
  6
0
 10
21.852
 20
60.137
 11
22.680
 21
60.137
  0
LINE
  8
slits
  6
0
 10
22.680
 20
60.137
 11
22.680
 21
59.309
  0
LINE
  8
slits
  6
0
 10
22.680
 20
59.309
 11
21.852
 21
59.309
  0
LINE
  8
slits
  6
0
 10
39.357
 20
61.012
 11
39.357
 21
62.171
  0
LINE
  8
slits
  6
0
 10
39.357
 20
62.171
 11
39.473
 21
62.171
  0
LINE
  8
slits
  6
0
 10
39.473
 20
62.171
 11
39.473
 21
61.012
  0
LINE
  8
slits
  6
0
 10
39.473
 20
61.012
 11
39.357
 21
61.012
  0
LINE
  8
slits
  6
0
 10
36.807
 20
62.391
 11
36.807
 21
63.550
  0
LINE
  8
slits
  6
0
 10
36.807
 20
63.550
 11
36.923
 21
63.550
  0
LINE
  8
slits
  6
0
 10
36.923
 20
63.550
 11
36.923
 21
62.391
  0
LINE
  8
slits
  6
0
 10
36.923
 20
62.391
 11
36.807
 21
62.391
  0
LINE
  8
slits
  6
0
 10
11.968
 20
65.075
 11
11.968
 21
66.235
  0
LINE
  8
slits
  6
0
 10
11.968
 20
66.235
 11
12.084
 21
66.235
  0
LINE
  8
slits
  6
0
 10
12.084
 20
66.235
 11
12.084
 21
65.075
  0
LINE
  8
slits
  6
0
 10
12.084
 20
65.075
 11
11.968
 21
65.075
  0
LINE
  8
slits
  6
0
 10
37.779
 20
66.762
 11
37.779
 21
67.921
  0
LINE
  8
slits
  6
0
 10
37.779
 20
67.921
 11
37.895
 21
67.921
  0
LINE
  8
slits
  6
0
 10
37.895
 20
67.921
 11
37.895
 21
66.762
  0
LINE
  8
slits
  6
0
 10
37.895
 20
66.762
 11
37.779
 21
66.762
  0
LINE
  8
slits
  6
0
 10
30.783
 20
68.406
 11
30.783
 21
69.566
  0
LINE
  8
slits
  6
0
 10
30.783
 20
69.566
 11
30.899
 21
69.566
  0
LINE
  8
slits
  6
0
 10
30.899
 20
69.566
 11
30.899
 21
68.406
  0
LINE
  8
slits
  6
0
 10
30.899
 20
68.406
 11
30.783
 21
68.406
  0
LINE
  8
slits
  6
0
 10
17.336
 20
71.858
 11
17.336
 21
73.017
  0
LINE
  8
slits
  6
0
 10
17.336
 20
73.017
 11
17.452
 21
73.017
  0
LINE
  8
slits
  6
0
 10
17.452
 20
73.017
 11
17.452
 21
71.858
  0
LINE
  8
slits
  6
0
 10
17.452
 20
71.858
 11
17.336
 21
71.858
  0
LINE
  8
slits
  6
0
 10
29.006
 20
75.667
 11
29.006
 21
76.827
  0
LINE
  8
slits
  6
0
 10
29.006
 20
76.827
 11
29.122
 21
76.827
  0
LINE
  8
slits
  6
0
 10
29.122
 20
76.827
 11
29.122
 21
75.667
  0
LINE
  8
slits
  6
0
 10
29.122
 20
75.667
 11
29.006
 21
75.667
  0
LINE
  8
slits
  6
0
 10
36.967
 20
77.142
 11
36.967
 21
78.301
  0
LINE
  8
slits
  6
0
 10
36.967
 20
78.301
 11
37.083
 21
78.301
  0
LINE
  8
slits
  6
0
 10
37.083
 20
78.301
 11
37.083
 21
77.142
  0
LINE
  8
slits
  6
0
 10
37.083
 20
77.142
 11
36.967
 21
77.142
  0
LINE
  8
slits
  6
0
 10
26.094
 20
79.243
 11
26.094
 21
80.402
  0
LINE
  8
slits
  6
0
 10
26.094
 20
80.402
 11
26.210
 21
80.402
  0
LINE
  8
slits
  6
0
 10
26.210
 20
80.402
 11
26.210
 21
79.243
  0
LINE
  8
slits
  6
0
 10
26.210
 20
79.243
 11
26.094
 21
79.243
  0
ENDSEC
  0
EOF
