999
Mask to DXF
  0
SECTION
  2
HEADER
  9
$ACADVER
  1
AC1006
  9
$INSBASE
 10
0.0
 20
0.0
 30
0.0
  9
$EXTMIN
 10
-1.0
 20
4.0
  9
$EXTMAX
 10
3.0
 20
4.0
  9
$LIMMIN
 10
-1.0
 20
4.0
  9
$LIMMAX
 10
3.0
 20
4.0
  0
ENDSEC
  0
SECTION
  2
TABLES
  0
TABLE
  2
LTYPE
 70
2
  0
LTYPE
  2
0
 70
0
  3
0
 72
65
 73
0
 40
0.0000
  0
ENDTAB
  0
TABLE
  2
LAYER
 70
5
  0
LAYER
  2
0
 70
0
  6
0
 62
7
  0
LAYER
  2
label
 70
0
  6
0
 62
3
  0
LAYER
  2
holes
 70
0
  6
0
 62
4
  0
LAYER
  2
outline
 70
0
  6
0
 62
5
  0
LAYER
  2
slits
 70
0
  6
0
 62
1
  0
ENDTAB
  0
ENDSEC
  0
SECTION
  2
ENTITIES
  0
LINE
  8
outline
  6
0
 10
1.5240000000000014
 20
0.0
 11
0.0
 21
1.5240000000000014
  0
LINE
  8
outline
  6
0
 10
0.0
 20
1.5240000000000014
 11
0.0
 21
92.456
  0
LINE
  8
outline
  6
0
 10
0.0
 20
92.456
 11
1.5240000000000014
 21
93.98
  0
LINE
  8
outline
  6
0
 10
1.5240000000000014
 20
93.98
 11
50.8
 21
93.98
  0
LINE
  8
outline
  6
0
 10
50.8
 20
93.98
 11
52.324
 21
92.456
  0
LINE
  8
outline
  6
0
 10
52.324
 20
92.456
 11
52.324
 21
13.462000000000005
  0
LINE
  8
outline
  6
0
 10
52.324
 20
13.462000000000005
 11
50.8
 21
11.938000000000004
  0
LINE
  8
outline
  6
0
 10
50.8
 20
11.938000000000004
 11
49.529999999999994
 21
11.938000000000004
  0
LINE
  8
outline
  6
0
 10
49.529999999999994
 20
11.938000000000004
 11
49.529999999999994
 21
1.5240000000000014
  0
LINE
  8
outline
  6
0
 10
49.529999999999994
 20
1.5240000000000014
 11
48.006
 21
0.0
  0
LINE
  8
outline
  6
0
 10
48.006
 20
0.0
 11
1.5240000000000014
 21
0.0
  0
CIRCLE
  8
holes
  6
0
 10
6.400799999999999
 20
86.4108
 40
1.5875
  0
CIRCLE
  8
holes
  6
0
 10
6.400799999999999
 20
5.435599999999999
 40
1.5875
  0
CIRCLE
  8
holes
  6
0
 10
46.050200000000004
 20
86.4108
 40
1.5875
  0
CIRCLE
  8
holes
  6
0
 10
46.050200000000004
 20
5.435599999999999
 40
1.5875
  0
CIRCLE
  8
holes
  6
0
 10
3.0988000000000024
 20
17.983200000000004
 40
1.2192
  0
LINE
  8
holes
  6
0
 10
24.98725
 20
88.3158
 11
24.98725
 21
84.5058
  0
LINE
  8
holes
  6
0
 10
24.98725
 20
84.5058
 11
27.438349999999996
 21
84.5058
  0
LINE
  8
holes
  6
0
 10
27.438349999999996
 20
84.5058
 11
27.438349999999996
 21
88.3158
  0
LINE
  8
holes
  6
0
 10
27.438349999999996
 20
88.3158
 11
24.98725
 21
88.3158
  0
TEXT
  8
label
  6
0
 10
21.351875
 20
10.334500000000004
 40
1.5875000000000001
  1
egsel11
  0
SOLID
  8
label
  6
0
 10
11.63
 20
4.572000000000004
 11
11.63
 21
9.334500000000004
 12
13.23
 22
4.572000000000004
 13
13.23
 23
9.334500000000004
  0
SOLID
  8
label
  6
0
 10
13.43
 20
4.572000000000004
 11
13.43
 21
9.334500000000004
 12
13.83
 22
4.572000000000004
 13
13.83
 23
9.334500000000004
  0
SOLID
  8
label
  6
0
 10
14.03
 20
4.572000000000004
 11
14.03
 21
9.334500000000004
 12
14.229999999999999
 22
4.572000000000004
 13
14.229999999999999
 23
9.334500000000004
  0
SOLID
  8
label
  6
0
 10
14.629999999999999
 20
4.572000000000004
 11
14.629999999999999
 21
9.334500000000004
 12
14.829999999999998
 22
4.572000000000004
 13
14.829999999999998
 23
9.334500000000004
  0
SOLID
  8
label
  6
0
 10
15.229999999999999
 20
4.572000000000004
 11
15.229999999999999
 21
9.334500000000004
 12
15.429999999999998
 22
4.572000000000004
 13
15.429999999999998
 23
9.334500000000004
  0
SOLID
  8
label
  6
0
 10
15.629999999999997
 20
4.572000000000004
 11
15.629999999999997
 21
9.334500000000004
 12
15.829999999999997
 22
4.572000000000004
 13
15.829999999999997
 23
9.334500000000004
  0
SOLID
  8
label
  6
0
 10
16.229999999999997
 20
4.572000000000004
 11
16.229999999999997
 21
9.334500000000004
 12
16.429999999999996
 22
4.572000000000004
 13
16.429999999999996
 23
9.334500000000004
  0
SOLID
  8
label
  6
0
 10
16.629999999999995
 20
4.572000000000004
 11
16.629999999999995
 21
9.334500000000004
 12
16.829999999999995
 22
4.572000000000004
 13
16.829999999999995
 23
9.334500000000004
  0
SOLID
  8
label
  6
0
 10
17.229999999999993
 20
4.572000000000004
 11
17.229999999999993
 21
9.334500000000004
 12
17.629999999999992
 22
4.572000000000004
 13
17.629999999999992
 23
9.334500000000004
  0
SOLID
  8
label
  6
0
 10
17.82999999999999
 20
4.572000000000004
 11
17.82999999999999
 21
9.334500000000004
 12
18.02999999999999
 22
4.572000000000004
 13
18.02999999999999
 23
9.334500000000004
  0
SOLID
  8
label
  6
0
 10
18.22999999999999
 20
4.572000000000004
 11
18.22999999999999
 21
9.334500000000004
 12
18.42999999999999
 22
4.572000000000004
 13
18.42999999999999
 23
9.334500000000004
  0
SOLID
  8
label
  6
0
 10
18.62999999999999
 20
4.572000000000004
 11
18.62999999999999
 21
9.334500000000004
 12
18.829999999999988
 22
4.572000000000004
 13
18.829999999999988
 23
9.334500000000004
  0
SOLID
  8
label
  6
0
 10
19.029999999999987
 20
4.572000000000004
 11
19.029999999999987
 21
9.334500000000004
 12
19.229999999999986
 22
4.572000000000004
 13
19.229999999999986
 23
9.334500000000004
  0
SOLID
  8
label
  6
0
 10
19.429999999999986
 20
4.572000000000004
 11
19.429999999999986
 21
9.334500000000004
 12
19.829999999999984
 22
4.572000000000004
 13
19.829999999999984
 23
9.334500000000004
  0
SOLID
  8
label
  6
0
 10
20.229999999999983
 20
4.572000000000004
 11
20.229999999999983
 21
9.334500000000004
 12
20.429999999999982
 22
4.572000000000004
 13
20.429999999999982
 23
9.334500000000004
  0
SOLID
  8
label
  6
0
 10
20.82999999999998
 20
4.572000000000004
 11
20.82999999999998
 21
9.334500000000004
 12
21.02999999999998
 22
4.572000000000004
 13
21.02999999999998
 23
9.334500000000004
  0
SOLID
  8
label
  6
0
 10
21.22999999999998
 20
4.572000000000004
 11
21.22999999999998
 21
9.334500000000004
 12
21.42999999999998
 22
4.572000000000004
 13
21.42999999999998
 23
9.334500000000004
  0
SOLID
  8
label
  6
0
 10
21.829999999999977
 20
4.572000000000004
 11
21.829999999999977
 21
9.334500000000004
 12
22.029999999999976
 22
4.572000000000004
 13
22.029999999999976
 23
9.334500000000004
  0
SOLID
  8
label
  6
0
 10
22.229999999999976
 20
4.572000000000004
 11
22.229999999999976
 21
9.334500000000004
 12
22.429999999999975
 22
4.572000000000004
 13
22.429999999999975
 23
9.334500000000004
  0
SOLID
  8
label
  6
0
 10
22.829999999999973
 20
4.572000000000004
 11
22.829999999999973
 21
9.334500000000004
 12
23.229999999999972
 22
4.572000000000004
 13
23.229999999999972
 23
9.334500000000004
  0
SOLID
  8
label
  6
0
 10
23.42999999999997
 20
4.572000000000004
 11
23.42999999999997
 21
9.334500000000004
 12
23.62999999999997
 22
4.572000000000004
 13
23.62999999999997
 23
9.334500000000004
  0
SOLID
  8
label
  6
0
 10
24.02999999999997
 20
4.572000000000004
 11
24.02999999999997
 21
9.334500000000004
 12
24.22999999999997
 22
4.572000000000004
 13
24.22999999999997
 23
9.334500000000004
  0
SOLID
  8
label
  6
0
 10
24.429999999999968
 20
4.572000000000004
 11
24.429999999999968
 21
9.334500000000004
 12
24.629999999999967
 22
4.572000000000004
 13
24.629999999999967
 23
9.334500000000004
  0
SOLID
  8
label
  6
0
 10
25.029999999999966
 20
4.572000000000004
 11
25.029999999999966
 21
9.334500000000004
 12
25.429999999999964
 22
4.572000000000004
 13
25.429999999999964
 23
9.334500000000004
  0
SOLID
  8
label
  6
0
 10
25.629999999999963
 20
4.572000000000004
 11
25.629999999999963
 21
9.334500000000004
 12
25.829999999999963
 22
4.572000000000004
 13
25.829999999999963
 23
9.334500000000004
  0
SOLID
  8
label
  6
0
 10
26.029999999999962
 20
4.572000000000004
 11
26.029999999999962
 21
9.334500000000004
 12
26.22999999999996
 22
4.572000000000004
 13
26.22999999999996
 23
9.334500000000004
  0
SOLID
  8
label
  6
0
 10
26.42999999999996
 20
4.572000000000004
 11
26.42999999999996
 21
9.334500000000004
 12
26.62999999999996
 22
4.572000000000004
 13
26.62999999999996
 23
9.334500000000004
  0
SOLID
  8
label
  6
0
 10
27.02999999999996
 20
4.572000000000004
 11
27.02999999999996
 21
9.334500000000004
 12
27.229999999999958
 22
4.572000000000004
 13
27.229999999999958
 23
9.334500000000004
  0
SOLID
  8
label
  6
0
 10
27.429999999999957
 20
4.572000000000004
 11
27.429999999999957
 21
9.334500000000004
 12
27.629999999999956
 22
4.572000000000004
 13
27.629999999999956
 23
9.334500000000004
  0
SOLID
  8
label
  6
0
 10
27.829999999999956
 20
4.572000000000004
 11
27.829999999999956
 21
9.334500000000004
 12
28.229999999999954
 22
4.572000000000004
 13
28.229999999999954
 23
9.334500000000004
  0
SOLID
  8
label
  6
0
 10
28.629999999999953
 20
4.572000000000004
 11
28.629999999999953
 21
9.334500000000004
 12
28.829999999999952
 22
4.572000000000004
 13
28.829999999999952
 23
9.334500000000004
  0
SOLID
  8
label
  6
0
 10
29.22999999999995
 20
4.572000000000004
 11
29.22999999999995
 21
9.334500000000004
 12
29.42999999999995
 22
4.572000000000004
 13
29.42999999999995
 23
9.334500000000004
  0
SOLID
  8
label
  6
0
 10
29.62999999999995
 20
4.572000000000004
 11
29.62999999999995
 21
9.334500000000004
 12
30.029999999999948
 22
4.572000000000004
 13
30.029999999999948
 23
9.334500000000004
  0
SOLID
  8
label
  6
0
 10
30.229999999999947
 20
4.572000000000004
 11
30.229999999999947
 21
9.334500000000004
 12
30.429999999999946
 22
4.572000000000004
 13
30.429999999999946
 23
9.334500000000004
  0
SOLID
  8
label
  6
0
 10
30.629999999999946
 20
4.572000000000004
 11
30.629999999999946
 21
9.334500000000004
 12
30.829999999999945
 22
4.572000000000004
 13
30.829999999999945
 23
9.334500000000004
  0
SOLID
  8
label
  6
0
 10
31.229999999999944
 20
4.572000000000004
 11
31.229999999999944
 21
9.334500000000004
 12
31.429999999999943
 22
4.572000000000004
 13
31.429999999999943
 23
9.334500000000004
  0
SOLID
  8
label
  6
0
 10
31.82999999999994
 20
4.572000000000004
 11
31.82999999999994
 21
9.334500000000004
 12
32.029999999999944
 22
4.572000000000004
 13
32.029999999999944
 23
9.334500000000004
  0
SOLID
  8
label
  6
0
 10
32.22999999999995
 20
4.572000000000004
 11
32.22999999999995
 21
9.334500000000004
 12
32.629999999999946
 22
4.572000000000004
 13
32.629999999999946
 23
9.334500000000004
  0
SOLID
  8
label
  6
0
 10
32.82999999999995
 20
4.572000000000004
 11
32.82999999999995
 21
9.334500000000004
 12
33.02999999999995
 22
4.572000000000004
 13
33.02999999999995
 23
9.334500000000004
  0
SOLID
  8
label
  6
0
 10
33.229999999999954
 20
4.572000000000004
 11
33.229999999999954
 21
9.334500000000004
 12
33.42999999999996
 22
4.572000000000004
 13
33.42999999999996
 23
9.334500000000004
  0
SOLID
  8
label
  6
0
 10
33.829999999999956
 20
4.572000000000004
 11
33.829999999999956
 21
9.334500000000004
 12
34.02999999999996
 22
4.572000000000004
 13
34.02999999999996
 23
9.334500000000004
  0
SOLID
  8
label
  6
0
 10
34.22999999999996
 20
4.572000000000004
 11
34.22999999999996
 21
9.334500000000004
 12
34.62999999999996
 22
4.572000000000004
 13
34.62999999999996
 23
9.334500000000004
  0
SOLID
  8
label
  6
0
 10
34.82999999999996
 20
4.572000000000004
 11
34.82999999999996
 21
9.334500000000004
 12
35.029999999999966
 22
4.572000000000004
 13
35.029999999999966
 23
9.334500000000004
  0
SOLID
  8
label
  6
0
 10
35.429999999999964
 20
4.572000000000004
 11
35.429999999999964
 21
9.334500000000004
 12
35.62999999999997
 22
4.572000000000004
 13
35.62999999999997
 23
9.334500000000004
  0
SOLID
  8
label
  6
0
 10
36.029999999999966
 20
4.572000000000004
 11
36.029999999999966
 21
9.334500000000004
 12
36.22999999999997
 22
4.572000000000004
 13
36.22999999999997
 23
9.334500000000004
  0
SOLID
  8
label
  6
0
 10
36.42999999999997
 20
4.572000000000004
 11
36.42999999999997
 21
9.334500000000004
 12
36.629999999999974
 22
4.572000000000004
 13
36.629999999999974
 23
9.334500000000004
  0
SOLID
  8
label
  6
0
 10
36.629999999999974
 20
4.572000000000004
 11
36.629999999999974
 21
9.334500000000004
 12
38.229999999999976
 22
4.572000000000004
 13
38.229999999999976
 23
9.334500000000004
  0
LINE
  8
slits
  6
0
 10
15.520
 20
14.899
 11
15.520
 21
16.059
  0
LINE
  8
slits
  6
0
 10
15.520
 20
16.059
 11
15.636
 21
16.059
  0
LINE
  8
slits
  6
0
 10
15.636
 20
16.059
 11
15.636
 21
14.899
  0
LINE
  8
slits
  6
0
 10
15.636
 20
14.899
 11
15.520
 21
14.899
  0
LINE
  8
slits
  6
0
 10
22.809
 20
17.613
 11
22.809
 21
18.772
  0
LINE
  8
slits
  6
0
 10
22.809
 20
18.772
 11
22.925
 21
18.772
  0
LINE
  8
slits
  6
0
 10
22.925
 20
18.772
 11
22.925
 21
17.613
  0
LINE
  8
slits
  6
0
 10
22.925
 20
17.613
 11
22.809
 21
17.613
  0
LINE
  8
slits
  6
0
 10
13.456
 20
19.968
 11
13.456
 21
21.127
  0
LINE
  8
slits
  6
0
 10
13.456
 20
21.127
 11
13.571
 21
21.127
  0
LINE
  8
slits
  6
0
 10
13.571
 20
21.127
 11
13.571
 21
19.968
  0
LINE
  8
slits
  6
0
 10
13.571
 20
19.968
 11
13.456
 21
19.968
  0
LINE
  8
slits
  6
0
 10
28.292
 20
21.828
 11
28.292
 21
22.987
  0
LINE
  8
slits
  6
0
 10
28.292
 20
22.987
 11
28.408
 21
22.987
  0
LINE
  8
slits
  6
0
 10
28.408
 20
22.987
 11
28.408
 21
21.828
  0
LINE
  8
slits
  6
0
 10
28.408
 20
21.828
 11
28.292
 21
21.828
  0
LINE
  8
slits
  6
0
 10
21.884
 20
24.368
 11
21.884
 21
25.196
  0
LINE
  8
slits
  6
0
 10
21.884
 20
25.196
 11
22.712
 21
25.196
  0
LINE
  8
slits
  6
0
 10
22.712
 20
25.196
 11
22.712
 21
24.368
  0
LINE
  8
slits
  6
0
 10
22.712
 20
24.368
 11
21.884
 21
24.368
  0
LINE
  8
slits
  6
0
 10
10.148
 20
25.941
 11
10.148
 21
27.100
  0
LINE
  8
slits
  6
0
 10
10.148
 20
27.100
 11
10.264
 21
27.100
  0
LINE
  8
slits
  6
0
 10
10.264
 20
27.100
 11
10.264
 21
25.941
  0
LINE
  8
slits
  6
0
 10
10.264
 20
25.941
 11
10.148
 21
25.941
  0
LINE
  8
slits
  6
0
 10
13.489
 20
27.439
 11
13.489
 21
28.598
  0
LINE
  8
slits
  6
0
 10
13.489
 20
28.598
 11
13.605
 21
28.598
  0
LINE
  8
slits
  6
0
 10
13.605
 20
28.598
 11
13.605
 21
27.439
  0
LINE
  8
slits
  6
0
 10
13.605
 20
27.439
 11
13.489
 21
27.439
  0
LINE
  8
slits
  6
0
 10
16.998
 20
28.848
 11
16.998
 21
30.007
  0
LINE
  8
slits
  6
0
 10
16.998
 20
30.007
 11
17.113
 21
30.007
  0
LINE
  8
slits
  6
0
 10
17.113
 20
30.007
 11
17.113
 21
28.848
  0
LINE
  8
slits
  6
0
 10
17.113
 20
28.848
 11
16.998
 21
28.848
  0
LINE
  8
slits
  6
0
 10
35.528
 20
32.319
 11
35.528
 21
33.478
  0
LINE
  8
slits
  6
0
 10
35.528
 20
33.478
 11
35.644
 21
33.478
  0
LINE
  8
slits
  6
0
 10
35.644
 20
33.478
 11
35.644
 21
32.319
  0
LINE
  8
slits
  6
0
 10
35.644
 20
32.319
 11
35.528
 21
32.319
  0
LINE
  8
slits
  6
0
 10
16.463
 20
33.861
 11
16.463
 21
35.021
  0
LINE
  8
slits
  6
0
 10
16.463
 20
35.021
 11
16.579
 21
35.021
  0
LINE
  8
slits
  6
0
 10
16.579
 20
35.021
 11
16.579
 21
33.861
  0
LINE
  8
slits
  6
0
 10
16.579
 20
33.861
 11
16.463
 21
33.861
  0
LINE
  8
slits
  6
0
 10
38.248
 20
35.676
 11
38.248
 21
36.835
  0
LINE
  8
slits
  6
0
 10
38.248
 20
36.835
 11
38.364
 21
36.835
  0
LINE
  8
slits
  6
0
 10
38.364
 20
36.835
 11
38.364
 21
35.676
  0
LINE
  8
slits
  6
0
 10
38.364
 20
35.676
 11
38.248
 21
35.676
  0
LINE
  8
slits
  6
0
 10
18.001
 20
39.608
 11
18.001
 21
40.767
  0
LINE
  8
slits
  6
0
 10
18.001
 20
40.767
 11
18.117
 21
40.767
  0
LINE
  8
slits
  6
0
 10
18.117
 20
40.767
 11
18.117
 21
39.608
  0
LINE
  8
slits
  6
0
 10
18.117
 20
39.608
 11
18.001
 21
39.608
  0
LINE
  8
slits
  6
0
 10
37.089
 20
41.343
 11
37.089
 21
42.503
  0
LINE
  8
slits
  6
0
 10
37.089
 20
42.503
 11
37.205
 21
42.503
  0
LINE
  8
slits
  6
0
 10
37.205
 20
42.503
 11
37.205
 21
41.343
  0
LINE
  8
slits
  6
0
 10
37.205
 20
41.343
 11
37.089
 21
41.343
  0
LINE
  8
slits
  6
0
 10
40.946
 20
46.332
 11
40.946
 21
47.492
  0
LINE
  8
slits
  6
0
 10
40.946
 20
47.492
 11
41.062
 21
47.492
  0
LINE
  8
slits
  6
0
 10
41.062
 20
47.492
 11
41.062
 21
46.332
  0
LINE
  8
slits
  6
0
 10
41.062
 20
46.332
 11
40.946
 21
46.332
  0
LINE
  8
slits
  6
0
 10
28.948
 20
49.621
 11
28.948
 21
50.780
  0
LINE
  8
slits
  6
0
 10
28.948
 20
50.780
 11
29.064
 21
50.780
  0
LINE
  8
slits
  6
0
 10
29.064
 20
50.780
 11
29.064
 21
49.621
  0
LINE
  8
slits
  6
0
 10
29.064
 20
49.621
 11
28.948
 21
49.621
  0
LINE
  8
slits
  6
0
 10
45.361
 20
51.852
 11
45.361
 21
53.011
  0
LINE
  8
slits
  6
0
 10
45.361
 20
53.011
 11
45.477
 21
53.011
  0
LINE
  8
slits
  6
0
 10
45.477
 20
53.011
 11
45.477
 21
51.852
  0
LINE
  8
slits
  6
0
 10
45.477
 20
51.852
 11
45.361
 21
51.852
  0
LINE
  8
slits
  6
0
 10
14.781
 20
53.561
 11
14.781
 21
54.720
  0
LINE
  8
slits
  6
0
 10
14.781
 20
54.720
 11
14.897
 21
54.720
  0
LINE
  8
slits
  6
0
 10
14.897
 20
54.720
 11
14.897
 21
53.561
  0
LINE
  8
slits
  6
0
 10
14.897
 20
53.561
 11
14.781
 21
53.561
  0
LINE
  8
slits
  6
0
 10
35.364
 20
55.445
 11
35.364
 21
56.273
  0
LINE
  8
slits
  6
0
 10
35.364
 20
56.273
 11
36.192
 21
56.273
  0
LINE
  8
slits
  6
0
 10
36.192
 20
56.273
 11
36.192
 21
55.445
  0
LINE
  8
slits
  6
0
 10
36.192
 20
55.445
 11
35.364
 21
55.445
  0
LINE
  8
slits
  6
0
 10
12.453
 20
56.962
 11
12.453
 21
58.122
  0
LINE
  8
slits
  6
0
 10
12.453
 20
58.122
 11
12.569
 21
58.122
  0
LINE
  8
slits
  6
0
 10
12.569
 20
58.122
 11
12.569
 21
56.962
  0
LINE
  8
slits
  6
0
 10
12.569
 20
56.962
 11
12.453
 21
56.962
  0
LINE
  8
slits
  6
0
 10
14.359
 20
59.000
 11
14.359
 21
60.159
  0
LINE
  8
slits
  6
0
 10
14.359
 20
60.159
 11
14.475
 21
60.159
  0
LINE
  8
slits
  6
0
 10
14.475
 20
60.159
 11
14.475
 21
59.000
  0
LINE
  8
slits
  6
0
 10
14.475
 20
59.000
 11
14.359
 21
59.000
  0
LINE
  8
slits
  6
0
 10
18.140
 20
61.402
 11
18.140
 21
62.561
  0
LINE
  8
slits
  6
0
 10
18.140
 20
62.561
 11
18.256
 21
62.561
  0
LINE
  8
slits
  6
0
 10
18.256
 20
62.561
 11
18.256
 21
61.402
  0
LINE
  8
slits
  6
0
 10
18.256
 20
61.402
 11
18.140
 21
61.402
  0
LINE
  8
slits
  6
0
 10
13.125
 20
64.908
 11
13.125
 21
66.068
  0
LINE
  8
slits
  6
0
 10
13.125
 20
66.068
 11
13.241
 21
66.068
  0
LINE
  8
slits
  6
0
 10
13.241
 20
66.068
 11
13.241
 21
64.908
  0
LINE
  8
slits
  6
0
 10
13.241
 20
64.908
 11
13.125
 21
64.908
  0
LINE
  8
slits
  6
0
 10
25.933
 20
66.839
 11
25.933
 21
67.998
  0
LINE
  8
slits
  6
0
 10
25.933
 20
67.998
 11
26.049
 21
67.998
  0
LINE
  8
slits
  6
0
 10
26.049
 20
67.998
 11
26.049
 21
66.839
  0
LINE
  8
slits
  6
0
 10
26.049
 20
66.839
 11
25.933
 21
66.839
  0
LINE
  8
slits
  6
0
 10
17.508
 20
68.937
 11
17.508
 21
70.096
  0
LINE
  8
slits
  6
0
 10
17.508
 20
70.096
 11
17.624
 21
70.096
  0
LINE
  8
slits
  6
0
 10
17.624
 20
70.096
 11
17.624
 21
68.937
  0
LINE
  8
slits
  6
0
 10
17.624
 20
68.937
 11
17.508
 21
68.937
  0
LINE
  8
slits
  6
0
 10
33.668
 20
70.705
 11
33.668
 21
71.864
  0
LINE
  8
slits
  6
0
 10
33.668
 20
71.864
 11
33.784
 21
71.864
  0
LINE
  8
slits
  6
0
 10
33.784
 20
71.864
 11
33.784
 21
70.705
  0
LINE
  8
slits
  6
0
 10
33.784
 20
70.705
 11
33.668
 21
70.705
  0
LINE
  8
slits
  6
0
 10
40.275
 20
72.541
 11
40.275
 21
73.700
  0
LINE
  8
slits
  6
0
 10
40.275
 20
73.700
 11
40.391
 21
73.700
  0
LINE
  8
slits
  6
0
 10
40.391
 20
73.700
 11
40.391
 21
72.541
  0
LINE
  8
slits
  6
0
 10
40.391
 20
72.541
 11
40.275
 21
72.541
  0
LINE
  8
slits
  6
0
 10
16.517
 20
75.563
 11
16.517
 21
76.391
  0
LINE
  8
slits
  6
0
 10
16.517
 20
76.391
 11
17.345
 21
76.391
  0
LINE
  8
slits
  6
0
 10
17.345
 20
76.391
 11
17.345
 21
75.563
  0
LINE
  8
slits
  6
0
 10
17.345
 20
75.563
 11
16.517
 21
75.563
  0
LINE
  8
slits
  6
0
 10
21.598
 20
76.591
 11
21.598
 21
77.750
  0
LINE
  8
slits
  6
0
 10
21.598
 20
77.750
 11
21.714
 21
77.750
  0
LINE
  8
slits
  6
0
 10
21.714
 20
77.750
 11
21.714
 21
76.591
  0
LINE
  8
slits
  6
0
 10
21.714
 20
76.591
 11
21.598
 21
76.591
  0
LINE
  8
slits
  6
0
 10
24.989
 20
79.265
 11
24.989
 21
80.093
  0
LINE
  8
slits
  6
0
 10
24.989
 20
80.093
 11
25.817
 21
80.093
  0
LINE
  8
slits
  6
0
 10
25.817
 20
80.093
 11
25.817
 21
79.265
  0
LINE
  8
slits
  6
0
 10
25.817
 20
79.265
 11
24.989
 21
79.265
  0
ENDSEC
  0
EOF
