999
Mask to DXF
  0
SECTION
  2
HEADER
  9
$ACADVER
  1
AC1006
  9
$INSBASE
 10
0.0
 20
0.0
 30
0.0
  9
$EXTMIN
 10
-1.0
 20
4.0
  9
$EXTMAX
 10
3.0
 20
4.0
  9
$LIMMIN
 10
-1.0
 20
4.0
  9
$LIMMAX
 10
3.0
 20
4.0
  0
ENDSEC
  0
SECTION
  2
TABLES
  0
TABLE
  2
LTYPE
 70
2
  0
LTYPE
  2
0
 70
0
  3
0
 72
65
 73
0
 40
0.0000
  0
ENDTAB
  0
TABLE
  2
LAYER
 70
5
  0
LAYER
  2
0
 70
0
  6
0
 62
7
  0
LAYER
  2
label
 70
0
  6
0
 62
3
  0
LAYER
  2
holes
 70
0
  6
0
 62
4
  0
LAYER
  2
outline
 70
0
  6
0
 62
5
  0
LAYER
  2
slits
 70
0
  6
0
 62
1
  0
ENDTAB
  0
ENDSEC
  0
SECTION
  2
ENTITIES
  0
LINE
  8
outline
  6
0
 10
1.5240000000000014
 20
0.0
 11
0.0
 21
1.5240000000000014
  0
LINE
  8
outline
  6
0
 10
0.0
 20
1.5240000000000014
 11
0.0
 21
92.456
  0
LINE
  8
outline
  6
0
 10
0.0
 20
92.456
 11
1.5240000000000014
 21
93.98
  0
LINE
  8
outline
  6
0
 10
1.5240000000000014
 20
93.98
 11
50.8
 21
93.98
  0
LINE
  8
outline
  6
0
 10
50.8
 20
93.98
 11
52.324
 21
92.456
  0
LINE
  8
outline
  6
0
 10
52.324
 20
92.456
 11
52.324
 21
13.462000000000005
  0
LINE
  8
outline
  6
0
 10
52.324
 20
13.462000000000005
 11
50.8
 21
11.938000000000004
  0
LINE
  8
outline
  6
0
 10
50.8
 20
11.938000000000004
 11
49.529999999999994
 21
11.938000000000004
  0
LINE
  8
outline
  6
0
 10
49.529999999999994
 20
11.938000000000004
 11
49.529999999999994
 21
1.5240000000000014
  0
LINE
  8
outline
  6
0
 10
49.529999999999994
 20
1.5240000000000014
 11
48.006
 21
0.0
  0
LINE
  8
outline
  6
0
 10
48.006
 20
0.0
 11
1.5240000000000014
 21
0.0
  0
CIRCLE
  8
holes
  6
0
 10
6.400799999999999
 20
86.4108
 40
1.5875
  0
CIRCLE
  8
holes
  6
0
 10
6.400799999999999
 20
5.435599999999999
 40
1.5875
  0
CIRCLE
  8
holes
  6
0
 10
46.050200000000004
 20
86.4108
 40
1.5875
  0
CIRCLE
  8
holes
  6
0
 10
46.050200000000004
 20
5.435599999999999
 40
1.5875
  0
CIRCLE
  8
holes
  6
0
 10
3.0988000000000024
 20
17.983200000000004
 40
1.2192
  0
LINE
  8
holes
  6
0
 10
24.98725
 20
88.3158
 11
24.98725
 21
84.5058
  0
LINE
  8
holes
  6
0
 10
24.98725
 20
84.5058
 11
27.438349999999996
 21
84.5058
  0
LINE
  8
holes
  6
0
 10
27.438349999999996
 20
84.5058
 11
27.438349999999996
 21
88.3158
  0
LINE
  8
holes
  6
0
 10
27.438349999999996
 20
88.3158
 11
24.98725
 21
88.3158
  0
TEXT
  8
label
  6
0
 10
21.351875
 20
10.334500000000004
 40
1.5875000000000001
  1
gdnel41
  0
SOLID
  8
label
  6
0
 10
11.63
 20
4.572000000000004
 11
11.63
 21
9.334500000000004
 12
13.23
 22
4.572000000000004
 13
13.23
 23
9.334500000000004
  0
SOLID
  8
label
  6
0
 10
13.43
 20
4.572000000000004
 11
13.43
 21
9.334500000000004
 12
13.83
 22
4.572000000000004
 13
13.83
 23
9.334500000000004
  0
SOLID
  8
label
  6
0
 10
14.03
 20
4.572000000000004
 11
14.03
 21
9.334500000000004
 12
14.229999999999999
 22
4.572000000000004
 13
14.229999999999999
 23
9.334500000000004
  0
SOLID
  8
label
  6
0
 10
14.629999999999999
 20
4.572000000000004
 11
14.629999999999999
 21
9.334500000000004
 12
14.829999999999998
 22
4.572000000000004
 13
14.829999999999998
 23
9.334500000000004
  0
SOLID
  8
label
  6
0
 10
15.229999999999999
 20
4.572000000000004
 11
15.229999999999999
 21
9.334500000000004
 12
15.429999999999998
 22
4.572000000000004
 13
15.429999999999998
 23
9.334500000000004
  0
SOLID
  8
label
  6
0
 10
15.629999999999997
 20
4.572000000000004
 11
15.629999999999997
 21
9.334500000000004
 12
15.829999999999997
 22
4.572000000000004
 13
15.829999999999997
 23
9.334500000000004
  0
SOLID
  8
label
  6
0
 10
16.029999999999998
 20
4.572000000000004
 11
16.029999999999998
 21
9.334500000000004
 12
16.229999999999997
 22
4.572000000000004
 13
16.229999999999997
 23
9.334500000000004
  0
SOLID
  8
label
  6
0
 10
16.429999999999996
 20
4.572000000000004
 11
16.429999999999996
 21
9.334500000000004
 12
16.629999999999995
 22
4.572000000000004
 13
16.629999999999995
 23
9.334500000000004
  0
SOLID
  8
label
  6
0
 10
16.829999999999995
 20
4.572000000000004
 11
16.829999999999995
 21
9.334500000000004
 12
17.229999999999993
 22
4.572000000000004
 13
17.229999999999993
 23
9.334500000000004
  0
SOLID
  8
label
  6
0
 10
17.629999999999992
 20
4.572000000000004
 11
17.629999999999992
 21
9.334500000000004
 12
17.82999999999999
 22
4.572000000000004
 13
17.82999999999999
 23
9.334500000000004
  0
SOLID
  8
label
  6
0
 10
18.22999999999999
 20
4.572000000000004
 11
18.22999999999999
 21
9.334500000000004
 12
18.42999999999999
 22
4.572000000000004
 13
18.42999999999999
 23
9.334500000000004
  0
SOLID
  8
label
  6
0
 10
18.62999999999999
 20
4.572000000000004
 11
18.62999999999999
 21
9.334500000000004
 12
18.829999999999988
 22
4.572000000000004
 13
18.829999999999988
 23
9.334500000000004
  0
SOLID
  8
label
  6
0
 10
19.029999999999987
 20
4.572000000000004
 11
19.029999999999987
 21
9.334500000000004
 12
19.229999999999986
 22
4.572000000000004
 13
19.229999999999986
 23
9.334500000000004
  0
SOLID
  8
label
  6
0
 10
19.629999999999985
 20
4.572000000000004
 11
19.629999999999985
 21
9.334500000000004
 12
20.029999999999983
 22
4.572000000000004
 13
20.029999999999983
 23
9.334500000000004
  0
SOLID
  8
label
  6
0
 10
20.229999999999983
 20
4.572000000000004
 11
20.229999999999983
 21
9.334500000000004
 12
20.429999999999982
 22
4.572000000000004
 13
20.429999999999982
 23
9.334500000000004
  0
SOLID
  8
label
  6
0
 10
20.82999999999998
 20
4.572000000000004
 11
20.82999999999998
 21
9.334500000000004
 12
21.02999999999998
 22
4.572000000000004
 13
21.02999999999998
 23
9.334500000000004
  0
SOLID
  8
label
  6
0
 10
21.22999999999998
 20
4.572000000000004
 11
21.22999999999998
 21
9.334500000000004
 12
21.42999999999998
 22
4.572000000000004
 13
21.42999999999998
 23
9.334500000000004
  0
SOLID
  8
label
  6
0
 10
21.629999999999978
 20
4.572000000000004
 11
21.629999999999978
 21
9.334500000000004
 12
21.829999999999977
 22
4.572000000000004
 13
21.829999999999977
 23
9.334500000000004
  0
SOLID
  8
label
  6
0
 10
22.229999999999976
 20
4.572000000000004
 11
22.229999999999976
 21
9.334500000000004
 12
22.429999999999975
 22
4.572000000000004
 13
22.429999999999975
 23
9.334500000000004
  0
SOLID
  8
label
  6
0
 10
22.629999999999974
 20
4.572000000000004
 11
22.629999999999974
 21
9.334500000000004
 12
23.029999999999973
 22
4.572000000000004
 13
23.029999999999973
 23
9.334500000000004
  0
SOLID
  8
label
  6
0
 10
23.42999999999997
 20
4.572000000000004
 11
23.42999999999997
 21
9.334500000000004
 12
23.62999999999997
 22
4.572000000000004
 13
23.62999999999997
 23
9.334500000000004
  0
SOLID
  8
label
  6
0
 10
24.02999999999997
 20
4.572000000000004
 11
24.02999999999997
 21
9.334500000000004
 12
24.22999999999997
 22
4.572000000000004
 13
24.22999999999997
 23
9.334500000000004
  0
SOLID
  8
label
  6
0
 10
24.429999999999968
 20
4.572000000000004
 11
24.429999999999968
 21
9.334500000000004
 12
24.629999999999967
 22
4.572000000000004
 13
24.629999999999967
 23
9.334500000000004
  0
SOLID
  8
label
  6
0
 10
25.029999999999966
 20
4.572000000000004
 11
25.029999999999966
 21
9.334500000000004
 12
25.429999999999964
 22
4.572000000000004
 13
25.429999999999964
 23
9.334500000000004
  0
SOLID
  8
label
  6
0
 10
25.629999999999963
 20
4.572000000000004
 11
25.629999999999963
 21
9.334500000000004
 12
25.829999999999963
 22
4.572000000000004
 13
25.829999999999963
 23
9.334500000000004
  0
SOLID
  8
label
  6
0
 10
26.029999999999962
 20
4.572000000000004
 11
26.029999999999962
 21
9.334500000000004
 12
26.22999999999996
 22
4.572000000000004
 13
26.22999999999996
 23
9.334500000000004
  0
SOLID
  8
label
  6
0
 10
26.42999999999996
 20
4.572000000000004
 11
26.42999999999996
 21
9.334500000000004
 12
26.62999999999996
 22
4.572000000000004
 13
26.62999999999996
 23
9.334500000000004
  0
SOLID
  8
label
  6
0
 10
27.02999999999996
 20
4.572000000000004
 11
27.02999999999996
 21
9.334500000000004
 12
27.229999999999958
 22
4.572000000000004
 13
27.229999999999958
 23
9.334500000000004
  0
SOLID
  8
label
  6
0
 10
27.429999999999957
 20
4.572000000000004
 11
27.429999999999957
 21
9.334500000000004
 12
27.629999999999956
 22
4.572000000000004
 13
27.629999999999956
 23
9.334500000000004
  0
SOLID
  8
label
  6
0
 10
27.829999999999956
 20
4.572000000000004
 11
27.829999999999956
 21
9.334500000000004
 12
28.229999999999954
 22
4.572000000000004
 13
28.229999999999954
 23
9.334500000000004
  0
SOLID
  8
label
  6
0
 10
28.629999999999953
 20
4.572000000000004
 11
28.629999999999953
 21
9.334500000000004
 12
28.829999999999952
 22
4.572000000000004
 13
28.829999999999952
 23
9.334500000000004
  0
SOLID
  8
label
  6
0
 10
29.02999999999995
 20
4.572000000000004
 11
29.02999999999995
 21
9.334500000000004
 12
29.22999999999995
 22
4.572000000000004
 13
29.22999999999995
 23
9.334500000000004
  0
SOLID
  8
label
  6
0
 10
29.42999999999995
 20
4.572000000000004
 11
29.42999999999995
 21
9.334500000000004
 12
29.82999999999995
 22
4.572000000000004
 13
29.82999999999995
 23
9.334500000000004
  0
SOLID
  8
label
  6
0
 10
30.229999999999947
 20
4.572000000000004
 11
30.229999999999947
 21
9.334500000000004
 12
30.429999999999946
 22
4.572000000000004
 13
30.429999999999946
 23
9.334500000000004
  0
SOLID
  8
label
  6
0
 10
30.629999999999946
 20
4.572000000000004
 11
30.629999999999946
 21
9.334500000000004
 12
30.829999999999945
 22
4.572000000000004
 13
30.829999999999945
 23
9.334500000000004
  0
SOLID
  8
label
  6
0
 10
31.229999999999944
 20
4.572000000000004
 11
31.229999999999944
 21
9.334500000000004
 12
31.429999999999943
 22
4.572000000000004
 13
31.429999999999943
 23
9.334500000000004
  0
SOLID
  8
label
  6
0
 10
31.82999999999994
 20
4.572000000000004
 11
31.82999999999994
 21
9.334500000000004
 12
32.029999999999944
 22
4.572000000000004
 13
32.029999999999944
 23
9.334500000000004
  0
SOLID
  8
label
  6
0
 10
32.22999999999995
 20
4.572000000000004
 11
32.22999999999995
 21
9.334500000000004
 12
32.629999999999946
 22
4.572000000000004
 13
32.629999999999946
 23
9.334500000000004
  0
SOLID
  8
label
  6
0
 10
32.82999999999995
 20
4.572000000000004
 11
32.82999999999995
 21
9.334500000000004
 12
33.02999999999995
 22
4.572000000000004
 13
33.02999999999995
 23
9.334500000000004
  0
SOLID
  8
label
  6
0
 10
33.229999999999954
 20
4.572000000000004
 11
33.229999999999954
 21
9.334500000000004
 12
33.42999999999996
 22
4.572000000000004
 13
33.42999999999996
 23
9.334500000000004
  0
SOLID
  8
label
  6
0
 10
33.829999999999956
 20
4.572000000000004
 11
33.829999999999956
 21
9.334500000000004
 12
34.02999999999996
 22
4.572000000000004
 13
34.02999999999996
 23
9.334500000000004
  0
SOLID
  8
label
  6
0
 10
34.22999999999996
 20
4.572000000000004
 11
34.22999999999996
 21
9.334500000000004
 12
34.62999999999996
 22
4.572000000000004
 13
34.62999999999996
 23
9.334500000000004
  0
SOLID
  8
label
  6
0
 10
34.82999999999996
 20
4.572000000000004
 11
34.82999999999996
 21
9.334500000000004
 12
35.029999999999966
 22
4.572000000000004
 13
35.029999999999966
 23
9.334500000000004
  0
SOLID
  8
label
  6
0
 10
35.429999999999964
 20
4.572000000000004
 11
35.429999999999964
 21
9.334500000000004
 12
35.62999999999997
 22
4.572000000000004
 13
35.62999999999997
 23
9.334500000000004
  0
SOLID
  8
label
  6
0
 10
36.029999999999966
 20
4.572000000000004
 11
36.029999999999966
 21
9.334500000000004
 12
36.22999999999997
 22
4.572000000000004
 13
36.22999999999997
 23
9.334500000000004
  0
SOLID
  8
label
  6
0
 10
36.42999999999997
 20
4.572000000000004
 11
36.42999999999997
 21
9.334500000000004
 12
36.629999999999974
 22
4.572000000000004
 13
36.629999999999974
 23
9.334500000000004
  0
SOLID
  8
label
  6
0
 10
36.629999999999974
 20
4.572000000000004
 11
36.629999999999974
 21
9.334500000000004
 12
38.229999999999976
 22
4.572000000000004
 13
38.229999999999976
 23
9.334500000000004
  0
LINE
  8
slits
  6
0
 10
41.717
 20
14.616
 11
41.717
 21
15.775
  0
LINE
  8
slits
  6
0
 10
41.717
 20
15.775
 11
41.882
 21
15.775
  0
LINE
  8
slits
  6
0
 10
41.882
 20
15.775
 11
41.882
 21
14.616
  0
LINE
  8
slits
  6
0
 10
41.882
 20
14.616
 11
41.717
 21
14.616
  0
LINE
  8
slits
  6
0
 10
32.693
 20
16.174
 11
32.693
 21
17.002
  0
LINE
  8
slits
  6
0
 10
32.693
 20
17.002
 11
33.521
 21
17.002
  0
LINE
  8
slits
  6
0
 10
33.521
 20
17.002
 11
33.521
 21
16.174
  0
LINE
  8
slits
  6
0
 10
33.521
 20
16.174
 11
32.693
 21
16.174
  0
LINE
  8
slits
  6
0
 10
16.826
 20
19.644
 11
16.826
 21
20.803
  0
LINE
  8
slits
  6
0
 10
16.826
 20
20.803
 11
16.991
 21
20.803
  0
LINE
  8
slits
  6
0
 10
16.991
 20
20.803
 11
16.991
 21
19.644
  0
LINE
  8
slits
  6
0
 10
16.991
 20
19.644
 11
16.826
 21
19.644
  0
LINE
  8
slits
  6
0
 10
29.979
 20
21.816
 11
29.979
 21
22.976
  0
LINE
  8
slits
  6
0
 10
29.979
 20
22.976
 11
30.145
 21
22.976
  0
LINE
  8
slits
  6
0
 10
30.145
 20
22.976
 11
30.145
 21
21.816
  0
LINE
  8
slits
  6
0
 10
30.145
 20
21.816
 11
29.979
 21
21.816
  0
LINE
  8
slits
  6
0
 10
23.293
 20
25.187
 11
23.293
 21
26.346
  0
LINE
  8
slits
  6
0
 10
23.293
 20
26.346
 11
23.459
 21
26.346
  0
LINE
  8
slits
  6
0
 10
23.459
 20
26.346
 11
23.459
 21
25.187
  0
LINE
  8
slits
  6
0
 10
23.459
 20
25.187
 11
23.293
 21
25.187
  0
LINE
  8
slits
  6
0
 10
37.733
 20
27.664
 11
37.733
 21
28.823
  0
LINE
  8
slits
  6
0
 10
37.733
 20
28.823
 11
37.899
 21
28.823
  0
LINE
  8
slits
  6
0
 10
37.899
 20
28.823
 11
37.899
 21
27.664
  0
LINE
  8
slits
  6
0
 10
37.899
 20
27.664
 11
37.733
 21
27.664
  0
LINE
  8
slits
  6
0
 10
42.418
 20
29.950
 11
42.418
 21
31.109
  0
LINE
  8
slits
  6
0
 10
42.418
 20
31.109
 11
42.583
 21
31.109
  0
LINE
  8
slits
  6
0
 10
42.583
 20
31.109
 11
42.583
 21
29.950
  0
LINE
  8
slits
  6
0
 10
42.583
 20
29.950
 11
42.418
 21
29.950
  0
LINE
  8
slits
  6
0
 10
35.109
 20
32.503
 11
35.109
 21
33.662
  0
LINE
  8
slits
  6
0
 10
35.109
 20
33.662
 11
35.275
 21
33.662
  0
LINE
  8
slits
  6
0
 10
35.275
 20
33.662
 11
35.275
 21
32.503
  0
LINE
  8
slits
  6
0
 10
35.275
 20
32.503
 11
35.109
 21
32.503
  0
LINE
  8
slits
  6
0
 10
10.315
 20
36.162
 11
10.315
 21
37.321
  0
LINE
  8
slits
  6
0
 10
10.315
 20
37.321
 11
10.480
 21
37.321
  0
LINE
  8
slits
  6
0
 10
10.480
 20
37.321
 11
10.480
 21
36.162
  0
LINE
  8
slits
  6
0
 10
10.480
 20
36.162
 11
10.315
 21
36.162
  0
LINE
  8
slits
  6
0
 10
33.206
 20
37.675
 11
33.206
 21
38.834
  0
LINE
  8
slits
  6
0
 10
33.206
 20
38.834
 11
33.371
 21
38.834
  0
LINE
  8
slits
  6
0
 10
33.371
 20
38.834
 11
33.371
 21
37.675
  0
LINE
  8
slits
  6
0
 10
33.371
 20
37.675
 11
33.206
 21
37.675
  0
LINE
  8
slits
  6
0
 10
35.497
 20
39.580
 11
35.497
 21
40.740
  0
LINE
  8
slits
  6
0
 10
35.497
 20
40.740
 11
35.662
 21
40.740
  0
LINE
  8
slits
  6
0
 10
35.662
 20
40.740
 11
35.662
 21
39.580
  0
LINE
  8
slits
  6
0
 10
35.662
 20
39.580
 11
35.497
 21
39.580
  0
LINE
  8
slits
  6
0
 10
13.497
 20
42.167
 11
13.497
 21
43.326
  0
LINE
  8
slits
  6
0
 10
13.497
 20
43.326
 11
13.662
 21
43.326
  0
LINE
  8
slits
  6
0
 10
13.662
 20
43.326
 11
13.662
 21
42.167
  0
LINE
  8
slits
  6
0
 10
13.662
 20
42.167
 11
13.497
 21
42.167
  0
LINE
  8
slits
  6
0
 10
24.144
 20
44.690
 11
24.144
 21
45.849
  0
LINE
  8
slits
  6
0
 10
24.144
 20
45.849
 11
24.310
 21
45.849
  0
LINE
  8
slits
  6
0
 10
24.310
 20
45.849
 11
24.310
 21
44.690
  0
LINE
  8
slits
  6
0
 10
24.310
 20
44.690
 11
24.144
 21
44.690
  0
LINE
  8
slits
  6
0
 10
33.993
 20
46.748
 11
33.993
 21
47.907
  0
LINE
  8
slits
  6
0
 10
33.993
 20
47.907
 11
34.159
 21
47.907
  0
LINE
  8
slits
  6
0
 10
34.159
 20
47.907
 11
34.159
 21
46.748
  0
LINE
  8
slits
  6
0
 10
34.159
 20
46.748
 11
33.993
 21
46.748
  0
LINE
  8
slits
  6
0
 10
19.708
 20
48.816
 11
19.708
 21
49.975
  0
LINE
  8
slits
  6
0
 10
19.708
 20
49.975
 11
19.874
 21
49.975
  0
LINE
  8
slits
  6
0
 10
19.874
 20
49.975
 11
19.874
 21
48.816
  0
LINE
  8
slits
  6
0
 10
19.874
 20
48.816
 11
19.708
 21
48.816
  0
LINE
  8
slits
  6
0
 10
36.041
 20
51.189
 11
36.041
 21
52.348
  0
LINE
  8
slits
  6
0
 10
36.041
 20
52.348
 11
36.207
 21
52.348
  0
LINE
  8
slits
  6
0
 10
36.207
 20
52.348
 11
36.207
 21
51.189
  0
LINE
  8
slits
  6
0
 10
36.207
 20
51.189
 11
36.041
 21
51.189
  0
LINE
  8
slits
  6
0
 10
35.266
 20
53.508
 11
35.266
 21
54.668
  0
LINE
  8
slits
  6
0
 10
35.266
 20
54.668
 11
35.431
 21
54.668
  0
LINE
  8
slits
  6
0
 10
35.431
 20
54.668
 11
35.431
 21
53.508
  0
LINE
  8
slits
  6
0
 10
35.431
 20
53.508
 11
35.266
 21
53.508
  0
LINE
  8
slits
  6
0
 10
42.212
 20
55.242
 11
42.212
 21
56.070
  0
LINE
  8
slits
  6
0
 10
42.212
 20
56.070
 11
43.040
 21
56.070
  0
LINE
  8
slits
  6
0
 10
43.040
 20
56.070
 11
43.040
 21
55.242
  0
LINE
  8
slits
  6
0
 10
43.040
 20
55.242
 11
42.212
 21
55.242
  0
LINE
  8
slits
  6
0
 10
23.305
 20
56.450
 11
23.305
 21
57.278
  0
LINE
  8
slits
  6
0
 10
23.305
 20
57.278
 11
24.133
 21
57.278
  0
LINE
  8
slits
  6
0
 10
24.133
 20
57.278
 11
24.133
 21
56.450
  0
LINE
  8
slits
  6
0
 10
24.133
 20
56.450
 11
23.305
 21
56.450
  0
LINE
  8
slits
  6
0
 10
26.252
 20
59.139
 11
26.252
 21
60.299
  0
LINE
  8
slits
  6
0
 10
26.252
 20
60.299
 11
26.417
 21
60.299
  0
LINE
  8
slits
  6
0
 10
26.417
 20
60.299
 11
26.417
 21
59.139
  0
LINE
  8
slits
  6
0
 10
26.417
 20
59.139
 11
26.252
 21
59.139
  0
LINE
  8
slits
  6
0
 10
28.183
 20
60.867
 11
28.183
 21
62.027
  0
LINE
  8
slits
  6
0
 10
28.183
 20
62.027
 11
28.349
 21
62.027
  0
LINE
  8
slits
  6
0
 10
28.349
 20
62.027
 11
28.349
 21
60.867
  0
LINE
  8
slits
  6
0
 10
28.349
 20
60.867
 11
28.183
 21
60.867
  0
LINE
  8
slits
  6
0
 10
37.223
 20
63.393
 11
37.223
 21
64.552
  0
LINE
  8
slits
  6
0
 10
37.223
 20
64.552
 11
37.388
 21
64.552
  0
LINE
  8
slits
  6
0
 10
37.388
 20
64.552
 11
37.388
 21
63.393
  0
LINE
  8
slits
  6
0
 10
37.388
 20
63.393
 11
37.223
 21
63.393
  0
LINE
  8
slits
  6
0
 10
38.400
 20
65.223
 11
38.400
 21
66.383
  0
LINE
  8
slits
  6
0
 10
38.400
 20
66.383
 11
38.566
 21
66.383
  0
LINE
  8
slits
  6
0
 10
38.566
 20
66.383
 11
38.566
 21
65.223
  0
LINE
  8
slits
  6
0
 10
38.566
 20
65.223
 11
38.400
 21
65.223
  0
LINE
  8
slits
  6
0
 10
29.419
 20
67.533
 11
29.419
 21
68.693
  0
LINE
  8
slits
  6
0
 10
29.419
 20
68.693
 11
29.585
 21
68.693
  0
LINE
  8
slits
  6
0
 10
29.585
 20
68.693
 11
29.585
 21
67.533
  0
LINE
  8
slits
  6
0
 10
29.585
 20
67.533
 11
29.419
 21
67.533
  0
LINE
  8
slits
  6
0
 10
34.655
 20
69.226
 11
34.655
 21
70.385
  0
LINE
  8
slits
  6
0
 10
34.655
 20
70.385
 11
34.821
 21
70.385
  0
LINE
  8
slits
  6
0
 10
34.821
 20
70.385
 11
34.821
 21
69.226
  0
LINE
  8
slits
  6
0
 10
34.821
 20
69.226
 11
34.655
 21
69.226
  0
LINE
  8
slits
  6
0
 10
32.605
 20
70.915
 11
32.605
 21
72.075
  0
LINE
  8
slits
  6
0
 10
32.605
 20
72.075
 11
32.771
 21
72.075
  0
LINE
  8
slits
  6
0
 10
32.771
 20
72.075
 11
32.771
 21
70.915
  0
LINE
  8
slits
  6
0
 10
32.771
 20
70.915
 11
32.605
 21
70.915
  0
LINE
  8
slits
  6
0
 10
21.449
 20
74.689
 11
21.449
 21
75.849
  0
LINE
  8
slits
  6
0
 10
21.449
 20
75.849
 11
21.615
 21
75.849
  0
LINE
  8
slits
  6
0
 10
21.615
 20
75.849
 11
21.615
 21
74.689
  0
LINE
  8
slits
  6
0
 10
21.615
 20
74.689
 11
21.449
 21
74.689
  0
LINE
  8
slits
  6
0
 10
13.814
 20
79.045
 11
13.814
 21
79.873
  0
LINE
  8
slits
  6
0
 10
13.814
 20
79.873
 11
14.642
 21
79.873
  0
LINE
  8
slits
  6
0
 10
14.642
 20
79.873
 11
14.642
 21
79.045
  0
LINE
  8
slits
  6
0
 10
14.642
 20
79.045
 11
13.814
 21
79.045
  0
ENDSEC
  0
EOF
