999
Mask to DXF
  0
SECTION
  2
HEADER
  9
$ACADVER
  1
AC1006
  9
$INSBASE
 10
0.0
 20
0.0
 30
0.0
  9
$EXTMIN
 10
-1.0
 20
4.0
  9
$EXTMAX
 10
3.0
 20
4.0
  9
$LIMMIN
 10
-1.0
 20
4.0
  9
$LIMMAX
 10
3.0
 20
4.0
  0
ENDSEC
  0
SECTION
  2
TABLES
  0
TABLE
  2
LTYPE
 70
2
  0
LTYPE
  2
0
 70
0
  3
0
 72
65
 73
0
 40
0.0000
  0
ENDTAB
  0
TABLE
  2
LAYER
 70
5
  0
LAYER
  2
0
 70
0
  6
0
 62
7
  0
LAYER
  2
label
 70
0
  6
0
 62
3
  0
LAYER
  2
holes
 70
0
  6
0
 62
4
  0
LAYER
  2
outline
 70
0
  6
0
 62
5
  0
LAYER
  2
slits
 70
0
  6
0
 62
1
  0
ENDTAB
  0
ENDSEC
  0
SECTION
  2
ENTITIES
  0
LINE
  8
outline
  6
0
 10
1.5240000000000014
 20
0.0
 11
0.0
 21
1.5240000000000014
  0
LINE
  8
outline
  6
0
 10
0.0
 20
1.5240000000000014
 11
0.0
 21
92.456
  0
LINE
  8
outline
  6
0
 10
0.0
 20
92.456
 11
1.5240000000000014
 21
93.98
  0
LINE
  8
outline
  6
0
 10
1.5240000000000014
 20
93.98
 11
50.8
 21
93.98
  0
LINE
  8
outline
  6
0
 10
50.8
 20
93.98
 11
52.324
 21
92.456
  0
LINE
  8
outline
  6
0
 10
52.324
 20
92.456
 11
52.324
 21
13.462000000000005
  0
LINE
  8
outline
  6
0
 10
52.324
 20
13.462000000000005
 11
50.8
 21
11.938000000000004
  0
LINE
  8
outline
  6
0
 10
50.8
 20
11.938000000000004
 11
49.529999999999994
 21
11.938000000000004
  0
LINE
  8
outline
  6
0
 10
49.529999999999994
 20
11.938000000000004
 11
49.529999999999994
 21
1.5240000000000014
  0
LINE
  8
outline
  6
0
 10
49.529999999999994
 20
1.5240000000000014
 11
48.006
 21
0.0
  0
LINE
  8
outline
  6
0
 10
48.006
 20
0.0
 11
1.5240000000000014
 21
0.0
  0
CIRCLE
  8
holes
  6
0
 10
6.400799999999999
 20
86.4108
 40
1.5875
  0
CIRCLE
  8
holes
  6
0
 10
6.400799999999999
 20
5.435599999999999
 40
1.5875
  0
CIRCLE
  8
holes
  6
0
 10
46.050200000000004
 20
86.4108
 40
1.5875
  0
CIRCLE
  8
holes
  6
0
 10
46.050200000000004
 20
5.435599999999999
 40
1.5875
  0
CIRCLE
  8
holes
  6
0
 10
3.0988000000000024
 20
17.983200000000004
 40
1.2192
  0
LINE
  8
holes
  6
0
 10
24.98725
 20
88.3158
 11
24.98725
 21
84.5058
  0
LINE
  8
holes
  6
0
 10
24.98725
 20
84.5058
 11
27.438349999999996
 21
84.5058
  0
LINE
  8
holes
  6
0
 10
27.438349999999996
 20
84.5058
 11
27.438349999999996
 21
88.3158
  0
LINE
  8
holes
  6
0
 10
27.438349999999996
 20
88.3158
 11
24.98725
 21
88.3158
  0
TEXT
  8
label
  6
0
 10
21.351875
 20
10.334500000000004
 40
1.5875000000000001
  1
gdnel11
  0
SOLID
  8
label
  6
0
 10
11.63
 20
4.572000000000004
 11
11.63
 21
9.334500000000004
 12
13.23
 22
4.572000000000004
 13
13.23
 23
9.334500000000004
  0
SOLID
  8
label
  6
0
 10
13.43
 20
4.572000000000004
 11
13.43
 21
9.334500000000004
 12
13.83
 22
4.572000000000004
 13
13.83
 23
9.334500000000004
  0
SOLID
  8
label
  6
0
 10
14.03
 20
4.572000000000004
 11
14.03
 21
9.334500000000004
 12
14.229999999999999
 22
4.572000000000004
 13
14.229999999999999
 23
9.334500000000004
  0
SOLID
  8
label
  6
0
 10
14.629999999999999
 20
4.572000000000004
 11
14.629999999999999
 21
9.334500000000004
 12
14.829999999999998
 22
4.572000000000004
 13
14.829999999999998
 23
9.334500000000004
  0
SOLID
  8
label
  6
0
 10
15.229999999999999
 20
4.572000000000004
 11
15.229999999999999
 21
9.334500000000004
 12
15.429999999999998
 22
4.572000000000004
 13
15.429999999999998
 23
9.334500000000004
  0
SOLID
  8
label
  6
0
 10
15.629999999999997
 20
4.572000000000004
 11
15.629999999999997
 21
9.334500000000004
 12
15.829999999999997
 22
4.572000000000004
 13
15.829999999999997
 23
9.334500000000004
  0
SOLID
  8
label
  6
0
 10
16.029999999999998
 20
4.572000000000004
 11
16.029999999999998
 21
9.334500000000004
 12
16.229999999999997
 22
4.572000000000004
 13
16.229999999999997
 23
9.334500000000004
  0
SOLID
  8
label
  6
0
 10
16.429999999999996
 20
4.572000000000004
 11
16.429999999999996
 21
9.334500000000004
 12
16.629999999999995
 22
4.572000000000004
 13
16.629999999999995
 23
9.334500000000004
  0
SOLID
  8
label
  6
0
 10
16.829999999999995
 20
4.572000000000004
 11
16.829999999999995
 21
9.334500000000004
 12
17.229999999999993
 22
4.572000000000004
 13
17.229999999999993
 23
9.334500000000004
  0
SOLID
  8
label
  6
0
 10
17.629999999999992
 20
4.572000000000004
 11
17.629999999999992
 21
9.334500000000004
 12
17.82999999999999
 22
4.572000000000004
 13
17.82999999999999
 23
9.334500000000004
  0
SOLID
  8
label
  6
0
 10
18.22999999999999
 20
4.572000000000004
 11
18.22999999999999
 21
9.334500000000004
 12
18.42999999999999
 22
4.572000000000004
 13
18.42999999999999
 23
9.334500000000004
  0
SOLID
  8
label
  6
0
 10
18.62999999999999
 20
4.572000000000004
 11
18.62999999999999
 21
9.334500000000004
 12
18.829999999999988
 22
4.572000000000004
 13
18.829999999999988
 23
9.334500000000004
  0
SOLID
  8
label
  6
0
 10
19.029999999999987
 20
4.572000000000004
 11
19.029999999999987
 21
9.334500000000004
 12
19.229999999999986
 22
4.572000000000004
 13
19.229999999999986
 23
9.334500000000004
  0
SOLID
  8
label
  6
0
 10
19.629999999999985
 20
4.572000000000004
 11
19.629999999999985
 21
9.334500000000004
 12
20.029999999999983
 22
4.572000000000004
 13
20.029999999999983
 23
9.334500000000004
  0
SOLID
  8
label
  6
0
 10
20.229999999999983
 20
4.572000000000004
 11
20.229999999999983
 21
9.334500000000004
 12
20.429999999999982
 22
4.572000000000004
 13
20.429999999999982
 23
9.334500000000004
  0
SOLID
  8
label
  6
0
 10
20.82999999999998
 20
4.572000000000004
 11
20.82999999999998
 21
9.334500000000004
 12
21.02999999999998
 22
4.572000000000004
 13
21.02999999999998
 23
9.334500000000004
  0
SOLID
  8
label
  6
0
 10
21.22999999999998
 20
4.572000000000004
 11
21.22999999999998
 21
9.334500000000004
 12
21.42999999999998
 22
4.572000000000004
 13
21.42999999999998
 23
9.334500000000004
  0
SOLID
  8
label
  6
0
 10
21.629999999999978
 20
4.572000000000004
 11
21.629999999999978
 21
9.334500000000004
 12
21.829999999999977
 22
4.572000000000004
 13
21.829999999999977
 23
9.334500000000004
  0
SOLID
  8
label
  6
0
 10
22.229999999999976
 20
4.572000000000004
 11
22.229999999999976
 21
9.334500000000004
 12
22.429999999999975
 22
4.572000000000004
 13
22.429999999999975
 23
9.334500000000004
  0
SOLID
  8
label
  6
0
 10
22.629999999999974
 20
4.572000000000004
 11
22.629999999999974
 21
9.334500000000004
 12
23.029999999999973
 22
4.572000000000004
 13
23.029999999999973
 23
9.334500000000004
  0
SOLID
  8
label
  6
0
 10
23.42999999999997
 20
4.572000000000004
 11
23.42999999999997
 21
9.334500000000004
 12
23.62999999999997
 22
4.572000000000004
 13
23.62999999999997
 23
9.334500000000004
  0
SOLID
  8
label
  6
0
 10
24.02999999999997
 20
4.572000000000004
 11
24.02999999999997
 21
9.334500000000004
 12
24.22999999999997
 22
4.572000000000004
 13
24.22999999999997
 23
9.334500000000004
  0
SOLID
  8
label
  6
0
 10
24.429999999999968
 20
4.572000000000004
 11
24.429999999999968
 21
9.334500000000004
 12
24.629999999999967
 22
4.572000000000004
 13
24.629999999999967
 23
9.334500000000004
  0
SOLID
  8
label
  6
0
 10
25.029999999999966
 20
4.572000000000004
 11
25.029999999999966
 21
9.334500000000004
 12
25.429999999999964
 22
4.572000000000004
 13
25.429999999999964
 23
9.334500000000004
  0
SOLID
  8
label
  6
0
 10
25.629999999999963
 20
4.572000000000004
 11
25.629999999999963
 21
9.334500000000004
 12
25.829999999999963
 22
4.572000000000004
 13
25.829999999999963
 23
9.334500000000004
  0
SOLID
  8
label
  6
0
 10
26.029999999999962
 20
4.572000000000004
 11
26.029999999999962
 21
9.334500000000004
 12
26.22999999999996
 22
4.572000000000004
 13
26.22999999999996
 23
9.334500000000004
  0
SOLID
  8
label
  6
0
 10
26.42999999999996
 20
4.572000000000004
 11
26.42999999999996
 21
9.334500000000004
 12
26.62999999999996
 22
4.572000000000004
 13
26.62999999999996
 23
9.334500000000004
  0
SOLID
  8
label
  6
0
 10
27.02999999999996
 20
4.572000000000004
 11
27.02999999999996
 21
9.334500000000004
 12
27.229999999999958
 22
4.572000000000004
 13
27.229999999999958
 23
9.334500000000004
  0
SOLID
  8
label
  6
0
 10
27.429999999999957
 20
4.572000000000004
 11
27.429999999999957
 21
9.334500000000004
 12
27.629999999999956
 22
4.572000000000004
 13
27.629999999999956
 23
9.334500000000004
  0
SOLID
  8
label
  6
0
 10
27.829999999999956
 20
4.572000000000004
 11
27.829999999999956
 21
9.334500000000004
 12
28.229999999999954
 22
4.572000000000004
 13
28.229999999999954
 23
9.334500000000004
  0
SOLID
  8
label
  6
0
 10
28.629999999999953
 20
4.572000000000004
 11
28.629999999999953
 21
9.334500000000004
 12
28.829999999999952
 22
4.572000000000004
 13
28.829999999999952
 23
9.334500000000004
  0
SOLID
  8
label
  6
0
 10
29.22999999999995
 20
4.572000000000004
 11
29.22999999999995
 21
9.334500000000004
 12
29.42999999999995
 22
4.572000000000004
 13
29.42999999999995
 23
9.334500000000004
  0
SOLID
  8
label
  6
0
 10
29.62999999999995
 20
4.572000000000004
 11
29.62999999999995
 21
9.334500000000004
 12
30.029999999999948
 22
4.572000000000004
 13
30.029999999999948
 23
9.334500000000004
  0
SOLID
  8
label
  6
0
 10
30.229999999999947
 20
4.572000000000004
 11
30.229999999999947
 21
9.334500000000004
 12
30.429999999999946
 22
4.572000000000004
 13
30.429999999999946
 23
9.334500000000004
  0
SOLID
  8
label
  6
0
 10
30.629999999999946
 20
4.572000000000004
 11
30.629999999999946
 21
9.334500000000004
 12
30.829999999999945
 22
4.572000000000004
 13
30.829999999999945
 23
9.334500000000004
  0
SOLID
  8
label
  6
0
 10
31.229999999999944
 20
4.572000000000004
 11
31.229999999999944
 21
9.334500000000004
 12
31.429999999999943
 22
4.572000000000004
 13
31.429999999999943
 23
9.334500000000004
  0
SOLID
  8
label
  6
0
 10
31.82999999999994
 20
4.572000000000004
 11
31.82999999999994
 21
9.334500000000004
 12
32.029999999999944
 22
4.572000000000004
 13
32.029999999999944
 23
9.334500000000004
  0
SOLID
  8
label
  6
0
 10
32.22999999999995
 20
4.572000000000004
 11
32.22999999999995
 21
9.334500000000004
 12
32.629999999999946
 22
4.572000000000004
 13
32.629999999999946
 23
9.334500000000004
  0
SOLID
  8
label
  6
0
 10
32.82999999999995
 20
4.572000000000004
 11
32.82999999999995
 21
9.334500000000004
 12
33.02999999999995
 22
4.572000000000004
 13
33.02999999999995
 23
9.334500000000004
  0
SOLID
  8
label
  6
0
 10
33.229999999999954
 20
4.572000000000004
 11
33.229999999999954
 21
9.334500000000004
 12
33.42999999999996
 22
4.572000000000004
 13
33.42999999999996
 23
9.334500000000004
  0
SOLID
  8
label
  6
0
 10
33.829999999999956
 20
4.572000000000004
 11
33.829999999999956
 21
9.334500000000004
 12
34.02999999999996
 22
4.572000000000004
 13
34.02999999999996
 23
9.334500000000004
  0
SOLID
  8
label
  6
0
 10
34.22999999999996
 20
4.572000000000004
 11
34.22999999999996
 21
9.334500000000004
 12
34.62999999999996
 22
4.572000000000004
 13
34.62999999999996
 23
9.334500000000004
  0
SOLID
  8
label
  6
0
 10
34.82999999999996
 20
4.572000000000004
 11
34.82999999999996
 21
9.334500000000004
 12
35.029999999999966
 22
4.572000000000004
 13
35.029999999999966
 23
9.334500000000004
  0
SOLID
  8
label
  6
0
 10
35.429999999999964
 20
4.572000000000004
 11
35.429999999999964
 21
9.334500000000004
 12
35.62999999999997
 22
4.572000000000004
 13
35.62999999999997
 23
9.334500000000004
  0
SOLID
  8
label
  6
0
 10
36.029999999999966
 20
4.572000000000004
 11
36.029999999999966
 21
9.334500000000004
 12
36.22999999999997
 22
4.572000000000004
 13
36.22999999999997
 23
9.334500000000004
  0
SOLID
  8
label
  6
0
 10
36.42999999999997
 20
4.572000000000004
 11
36.42999999999997
 21
9.334500000000004
 12
36.629999999999974
 22
4.572000000000004
 13
36.629999999999974
 23
9.334500000000004
  0
SOLID
  8
label
  6
0
 10
36.629999999999974
 20
4.572000000000004
 11
36.629999999999974
 21
9.334500000000004
 12
38.229999999999976
 22
4.572000000000004
 13
38.229999999999976
 23
9.334500000000004
  0
LINE
  8
slits
  6
0
 10
34.458
 20
15.183
 11
34.458
 21
16.343
  0
LINE
  8
slits
  6
0
 10
34.458
 20
16.343
 11
34.573
 21
16.343
  0
LINE
  8
slits
  6
0
 10
34.573
 20
16.343
 11
34.573
 21
15.183
  0
LINE
  8
slits
  6
0
 10
34.573
 20
15.183
 11
34.458
 21
15.183
  0
LINE
  8
slits
  6
0
 10
30.934
 20
16.800
 11
30.934
 21
17.960
  0
LINE
  8
slits
  6
0
 10
30.934
 20
17.960
 11
31.050
 21
17.960
  0
LINE
  8
slits
  6
0
 10
31.050
 20
17.960
 11
31.050
 21
16.800
  0
LINE
  8
slits
  6
0
 10
31.050
 20
16.800
 11
30.934
 21
16.800
  0
LINE
  8
slits
  6
0
 10
31.189
 20
21.247
 11
31.189
 21
22.407
  0
LINE
  8
slits
  6
0
 10
31.189
 20
22.407
 11
31.305
 21
22.407
  0
LINE
  8
slits
  6
0
 10
31.305
 20
22.407
 11
31.305
 21
21.247
  0
LINE
  8
slits
  6
0
 10
31.305
 20
21.247
 11
31.189
 21
21.247
  0
LINE
  8
slits
  6
0
 10
35.126
 20
23.324
 11
35.126
 21
24.483
  0
LINE
  8
slits
  6
0
 10
35.126
 20
24.483
 11
35.242
 21
24.483
  0
LINE
  8
slits
  6
0
 10
35.242
 20
24.483
 11
35.242
 21
23.324
  0
LINE
  8
slits
  6
0
 10
35.242
 20
23.324
 11
35.126
 21
23.324
  0
LINE
  8
slits
  6
0
 10
42.507
 20
25.643
 11
42.507
 21
26.802
  0
LINE
  8
slits
  6
0
 10
42.507
 20
26.802
 11
42.623
 21
26.802
  0
LINE
  8
slits
  6
0
 10
42.623
 20
26.802
 11
42.623
 21
25.643
  0
LINE
  8
slits
  6
0
 10
42.623
 20
25.643
 11
42.507
 21
25.643
  0
LINE
  8
slits
  6
0
 10
19.437
 20
28.371
 11
19.437
 21
29.530
  0
LINE
  8
slits
  6
0
 10
19.437
 20
29.530
 11
19.552
 21
29.530
  0
LINE
  8
slits
  6
0
 10
19.552
 20
29.530
 11
19.552
 21
28.371
  0
LINE
  8
slits
  6
0
 10
19.552
 20
28.371
 11
19.437
 21
28.371
  0
LINE
  8
slits
  6
0
 10
10.942
 20
29.795
 11
10.942
 21
30.954
  0
LINE
  8
slits
  6
0
 10
10.942
 20
30.954
 11
11.058
 21
30.954
  0
LINE
  8
slits
  6
0
 10
11.058
 20
30.954
 11
11.058
 21
29.795
  0
LINE
  8
slits
  6
0
 10
11.058
 20
29.795
 11
10.942
 21
29.795
  0
LINE
  8
slits
  6
0
 10
8.190
 20
31.162
 11
8.190
 21
32.321
  0
LINE
  8
slits
  6
0
 10
8.190
 20
32.321
 11
8.306
 21
32.321
  0
LINE
  8
slits
  6
0
 10
8.306
 20
32.321
 11
8.306
 21
31.162
  0
LINE
  8
slits
  6
0
 10
8.306
 20
31.162
 11
8.190
 21
31.162
  0
LINE
  8
slits
  6
0
 10
19.558
 20
32.983
 11
19.558
 21
34.143
  0
LINE
  8
slits
  6
0
 10
19.558
 20
34.143
 11
19.674
 21
34.143
  0
LINE
  8
slits
  6
0
 10
19.674
 20
34.143
 11
19.674
 21
32.983
  0
LINE
  8
slits
  6
0
 10
19.674
 20
32.983
 11
19.558
 21
32.983
  0
LINE
  8
slits
  6
0
 10
19.902
 20
34.391
 11
19.902
 21
35.550
  0
LINE
  8
slits
  6
0
 10
19.902
 20
35.550
 11
20.018
 21
35.550
  0
LINE
  8
slits
  6
0
 10
20.018
 20
35.550
 11
20.018
 21
34.391
  0
LINE
  8
slits
  6
0
 10
20.018
 20
34.391
 11
19.902
 21
34.391
  0
LINE
  8
slits
  6
0
 10
37.074
 20
36.383
 11
37.074
 21
37.542
  0
LINE
  8
slits
  6
0
 10
37.074
 20
37.542
 11
37.190
 21
37.542
  0
LINE
  8
slits
  6
0
 10
37.190
 20
37.542
 11
37.190
 21
36.383
  0
LINE
  8
slits
  6
0
 10
37.190
 20
36.383
 11
37.074
 21
36.383
  0
LINE
  8
slits
  6
0
 10
40.002
 20
38.353
 11
40.002
 21
39.513
  0
LINE
  8
slits
  6
0
 10
40.002
 20
39.513
 11
40.118
 21
39.513
  0
LINE
  8
slits
  6
0
 10
40.118
 20
39.513
 11
40.118
 21
38.353
  0
LINE
  8
slits
  6
0
 10
40.118
 20
38.353
 11
40.002
 21
38.353
  0
LINE
  8
slits
  6
0
 10
25.537
 20
41.726
 11
25.537
 21
42.554
  0
LINE
  8
slits
  6
0
 10
25.537
 20
42.554
 11
26.365
 21
42.554
  0
LINE
  8
slits
  6
0
 10
26.365
 20
42.554
 11
26.365
 21
41.726
  0
LINE
  8
slits
  6
0
 10
26.365
 20
41.726
 11
25.537
 21
41.726
  0
LINE
  8
slits
  6
0
 10
42.082
 20
44.444
 11
42.082
 21
45.603
  0
LINE
  8
slits
  6
0
 10
42.082
 20
45.603
 11
42.198
 21
45.603
  0
LINE
  8
slits
  6
0
 10
42.198
 20
45.603
 11
42.198
 21
44.444
  0
LINE
  8
slits
  6
0
 10
42.198
 20
44.444
 11
42.082
 21
44.444
  0
LINE
  8
slits
  6
0
 10
14.820
 20
46.362
 11
14.820
 21
47.521
  0
LINE
  8
slits
  6
0
 10
14.820
 20
47.521
 11
14.936
 21
47.521
  0
LINE
  8
slits
  6
0
 10
14.936
 20
47.521
 11
14.936
 21
46.362
  0
LINE
  8
slits
  6
0
 10
14.936
 20
46.362
 11
14.820
 21
46.362
  0
LINE
  8
slits
  6
0
 10
23.504
 20
49.558
 11
23.504
 21
50.717
  0
LINE
  8
slits
  6
0
 10
23.504
 20
50.717
 11
23.620
 21
50.717
  0
LINE
  8
slits
  6
0
 10
23.620
 20
50.717
 11
23.620
 21
49.558
  0
LINE
  8
slits
  6
0
 10
23.620
 20
49.558
 11
23.504
 21
49.558
  0
LINE
  8
slits
  6
0
 10
28.916
 20
51.024
 11
28.916
 21
52.183
  0
LINE
  8
slits
  6
0
 10
28.916
 20
52.183
 11
29.032
 21
52.183
  0
LINE
  8
slits
  6
0
 10
29.032
 20
52.183
 11
29.032
 21
51.024
  0
LINE
  8
slits
  6
0
 10
29.032
 20
51.024
 11
28.916
 21
51.024
  0
LINE
  8
slits
  6
0
 10
16.143
 20
53.515
 11
16.143
 21
54.675
  0
LINE
  8
slits
  6
0
 10
16.143
 20
54.675
 11
16.259
 21
54.675
  0
LINE
  8
slits
  6
0
 10
16.259
 20
54.675
 11
16.259
 21
53.515
  0
LINE
  8
slits
  6
0
 10
16.259
 20
53.515
 11
16.143
 21
53.515
  0
LINE
  8
slits
  6
0
 10
13.979
 20
55.514
 11
13.979
 21
56.674
  0
LINE
  8
slits
  6
0
 10
13.979
 20
56.674
 11
14.095
 21
56.674
  0
LINE
  8
slits
  6
0
 10
14.095
 20
56.674
 11
14.095
 21
55.514
  0
LINE
  8
slits
  6
0
 10
14.095
 20
55.514
 11
13.979
 21
55.514
  0
LINE
  8
slits
  6
0
 10
13.298
 20
57.275
 11
13.298
 21
58.434
  0
LINE
  8
slits
  6
0
 10
13.298
 20
58.434
 11
13.414
 21
58.434
  0
LINE
  8
slits
  6
0
 10
13.414
 20
58.434
 11
13.414
 21
57.275
  0
LINE
  8
slits
  6
0
 10
13.414
 20
57.275
 11
13.298
 21
57.275
  0
LINE
  8
slits
  6
0
 10
26.743
 20
59.450
 11
26.743
 21
60.610
  0
LINE
  8
slits
  6
0
 10
26.743
 20
60.610
 11
26.859
 21
60.610
  0
LINE
  8
slits
  6
0
 10
26.859
 20
60.610
 11
26.859
 21
59.450
  0
LINE
  8
slits
  6
0
 10
26.859
 20
59.450
 11
26.743
 21
59.450
  0
LINE
  8
slits
  6
0
 10
14.145
 20
61.528
 11
14.145
 21
62.687
  0
LINE
  8
slits
  6
0
 10
14.145
 20
62.687
 11
14.261
 21
62.687
  0
LINE
  8
slits
  6
0
 10
14.261
 20
62.687
 11
14.261
 21
61.528
  0
LINE
  8
slits
  6
0
 10
14.261
 20
61.528
 11
14.145
 21
61.528
  0
LINE
  8
slits
  6
0
 10
26.793
 20
63.899
 11
26.793
 21
65.059
  0
LINE
  8
slits
  6
0
 10
26.793
 20
65.059
 11
26.909
 21
65.059
  0
LINE
  8
slits
  6
0
 10
26.909
 20
65.059
 11
26.909
 21
63.899
  0
LINE
  8
slits
  6
0
 10
26.909
 20
63.899
 11
26.793
 21
63.899
  0
LINE
  8
slits
  6
0
 10
16.611
 20
66.003
 11
16.611
 21
66.831
  0
LINE
  8
slits
  6
0
 10
16.611
 20
66.831
 11
17.439
 21
66.831
  0
LINE
  8
slits
  6
0
 10
17.439
 20
66.831
 11
17.439
 21
66.003
  0
LINE
  8
slits
  6
0
 10
17.439
 20
66.003
 11
16.611
 21
66.003
  0
LINE
  8
slits
  6
0
 10
25.902
 20
67.049
 11
25.902
 21
68.209
  0
LINE
  8
slits
  6
0
 10
25.902
 20
68.209
 11
26.018
 21
68.209
  0
LINE
  8
slits
  6
0
 10
26.018
 20
68.209
 11
26.018
 21
67.049
  0
LINE
  8
slits
  6
0
 10
26.018
 20
67.049
 11
25.902
 21
67.049
  0
LINE
  8
slits
  6
0
 10
27.219
 20
69.270
 11
27.219
 21
70.429
  0
LINE
  8
slits
  6
0
 10
27.219
 20
70.429
 11
27.334
 21
70.429
  0
LINE
  8
slits
  6
0
 10
27.334
 20
70.429
 11
27.334
 21
69.270
  0
LINE
  8
slits
  6
0
 10
27.334
 20
69.270
 11
27.219
 21
69.270
  0
LINE
  8
slits
  6
0
 10
37.188
 20
71.211
 11
37.188
 21
72.039
  0
LINE
  8
slits
  6
0
 10
37.188
 20
72.039
 11
38.016
 21
72.039
  0
LINE
  8
slits
  6
0
 10
38.016
 20
72.039
 11
38.016
 21
71.211
  0
LINE
  8
slits
  6
0
 10
38.016
 20
71.211
 11
37.188
 21
71.211
  0
LINE
  8
slits
  6
0
 10
43.117
 20
73.130
 11
43.117
 21
74.290
  0
LINE
  8
slits
  6
0
 10
43.117
 20
74.290
 11
43.233
 21
74.290
  0
LINE
  8
slits
  6
0
 10
43.233
 20
74.290
 11
43.233
 21
73.130
  0
LINE
  8
slits
  6
0
 10
43.233
 20
73.130
 11
43.117
 21
73.130
  0
LINE
  8
slits
  6
0
 10
38.393
 20
74.511
 11
38.393
 21
75.671
  0
LINE
  8
slits
  6
0
 10
38.393
 20
75.671
 11
38.509
 21
75.671
  0
LINE
  8
slits
  6
0
 10
38.509
 20
75.671
 11
38.509
 21
74.511
  0
LINE
  8
slits
  6
0
 10
38.509
 20
74.511
 11
38.393
 21
74.511
  0
LINE
  8
slits
  6
0
 10
23.464
 20
76.031
 11
23.464
 21
77.190
  0
LINE
  8
slits
  6
0
 10
23.464
 20
77.190
 11
23.580
 21
77.190
  0
LINE
  8
slits
  6
0
 10
23.580
 20
77.190
 11
23.580
 21
76.031
  0
LINE
  8
slits
  6
0
 10
23.580
 20
76.031
 11
23.464
 21
76.031
  0
LINE
  8
slits
  6
0
 10
16.807
 20
77.887
 11
16.807
 21
78.715
  0
LINE
  8
slits
  6
0
 10
16.807
 20
78.715
 11
17.635
 21
78.715
  0
LINE
  8
slits
  6
0
 10
17.635
 20
78.715
 11
17.635
 21
77.887
  0
LINE
  8
slits
  6
0
 10
17.635
 20
77.887
 11
16.807
 21
77.887
  0
LINE
  8
slits
  6
0
 10
29.664
 20
79.008
 11
29.664
 21
80.167
  0
LINE
  8
slits
  6
0
 10
29.664
 20
80.167
 11
29.779
 21
80.167
  0
LINE
  8
slits
  6
0
 10
29.779
 20
80.167
 11
29.779
 21
79.008
  0
LINE
  8
slits
  6
0
 10
29.779
 20
79.008
 11
29.664
 21
79.008
  0
ENDSEC
  0
EOF
