999
Mask to DXF
  0
SECTION
  2
HEADER
  9
$ACADVER
  1
AC1006
  9
$INSBASE
 10
0.0
 20
0.0
 30
0.0
  9
$EXTMIN
 10
-1.0
 20
4.0
  9
$EXTMAX
 10
3.0
 20
4.0
  9
$LIMMIN
 10
-1.0
 20
4.0
  9
$LIMMAX
 10
3.0
 20
4.0
  0
ENDSEC
  0
SECTION
  2
TABLES
  0
TABLE
  2
LTYPE
 70
2
  0
LTYPE
  2
0
 70
0
  3
0
 72
65
 73
0
 40
0.0000
  0
ENDTAB
  0
TABLE
  2
LAYER
 70
5
  0
LAYER
  2
0
 70
0
  6
0
 62
7
  0
LAYER
  2
label
 70
0
  6
0
 62
3
  0
LAYER
  2
holes
 70
0
  6
0
 62
4
  0
LAYER
  2
outline
 70
0
  6
0
 62
5
  0
LAYER
  2
slits
 70
0
  6
0
 62
1
  0
ENDTAB
  0
ENDSEC
  0
SECTION
  2
ENTITIES
  0
LINE
  8
outline
  6
0
 10
1.5240000000000014
 20
0.0
 11
0.0
 21
1.5240000000000014
  0
LINE
  8
outline
  6
0
 10
0.0
 20
1.5240000000000014
 11
0.0
 21
92.456
  0
LINE
  8
outline
  6
0
 10
0.0
 20
92.456
 11
1.5240000000000014
 21
93.98
  0
LINE
  8
outline
  6
0
 10
1.5240000000000014
 20
93.98
 11
50.8
 21
93.98
  0
LINE
  8
outline
  6
0
 10
50.8
 20
93.98
 11
52.324
 21
92.456
  0
LINE
  8
outline
  6
0
 10
52.324
 20
92.456
 11
52.324
 21
13.462000000000005
  0
LINE
  8
outline
  6
0
 10
52.324
 20
13.462000000000005
 11
50.8
 21
11.938000000000004
  0
LINE
  8
outline
  6
0
 10
50.8
 20
11.938000000000004
 11
49.529999999999994
 21
11.938000000000004
  0
LINE
  8
outline
  6
0
 10
49.529999999999994
 20
11.938000000000004
 11
49.529999999999994
 21
1.5240000000000014
  0
LINE
  8
outline
  6
0
 10
49.529999999999994
 20
1.5240000000000014
 11
48.006
 21
0.0
  0
LINE
  8
outline
  6
0
 10
48.006
 20
0.0
 11
1.5240000000000014
 21
0.0
  0
CIRCLE
  8
holes
  6
0
 10
6.400799999999999
 20
86.4108
 40
1.5875
  0
CIRCLE
  8
holes
  6
0
 10
6.400799999999999
 20
5.435599999999999
 40
1.5875
  0
CIRCLE
  8
holes
  6
0
 10
46.050200000000004
 20
86.4108
 40
1.5875
  0
CIRCLE
  8
holes
  6
0
 10
46.050200000000004
 20
5.435599999999999
 40
1.5875
  0
CIRCLE
  8
holes
  6
0
 10
3.0988000000000024
 20
17.983200000000004
 40
1.2192
  0
LINE
  8
holes
  6
0
 10
24.98725
 20
88.3158
 11
24.98725
 21
84.5058
  0
LINE
  8
holes
  6
0
 10
24.98725
 20
84.5058
 11
27.438349999999996
 21
84.5058
  0
LINE
  8
holes
  6
0
 10
27.438349999999996
 20
84.5058
 11
27.438349999999996
 21
88.3158
  0
LINE
  8
holes
  6
0
 10
27.438349999999996
 20
88.3158
 11
24.98725
 21
88.3158
  0
TEXT
  8
label
  6
0
 10
21.351875
 20
10.334500000000004
 40
1.5875000000000001
  1
m1149z1
  0
SOLID
  8
label
  6
0
 10
11.63
 20
4.572000000000004
 11
11.63
 21
9.334500000000004
 12
13.23
 22
4.572000000000004
 13
13.23
 23
9.334500000000004
  0
SOLID
  8
label
  6
0
 10
13.43
 20
4.572000000000004
 11
13.43
 21
9.334500000000004
 12
13.83
 22
4.572000000000004
 13
13.83
 23
9.334500000000004
  0
SOLID
  8
label
  6
0
 10
14.03
 20
4.572000000000004
 11
14.03
 21
9.334500000000004
 12
14.229999999999999
 22
4.572000000000004
 13
14.229999999999999
 23
9.334500000000004
  0
SOLID
  8
label
  6
0
 10
14.629999999999999
 20
4.572000000000004
 11
14.629999999999999
 21
9.334500000000004
 12
14.829999999999998
 22
4.572000000000004
 13
14.829999999999998
 23
9.334500000000004
  0
SOLID
  8
label
  6
0
 10
15.229999999999999
 20
4.572000000000004
 11
15.229999999999999
 21
9.334500000000004
 12
15.429999999999998
 22
4.572000000000004
 13
15.429999999999998
 23
9.334500000000004
  0
SOLID
  8
label
  6
0
 10
15.629999999999997
 20
4.572000000000004
 11
15.629999999999997
 21
9.334500000000004
 12
15.829999999999997
 22
4.572000000000004
 13
15.829999999999997
 23
9.334500000000004
  0
SOLID
  8
label
  6
0
 10
16.229999999999997
 20
4.572000000000004
 11
16.229999999999997
 21
9.334500000000004
 12
16.429999999999996
 22
4.572000000000004
 13
16.429999999999996
 23
9.334500000000004
  0
SOLID
  8
label
  6
0
 10
16.829999999999995
 20
4.572000000000004
 11
16.829999999999995
 21
9.334500000000004
 12
17.029999999999994
 22
4.572000000000004
 13
17.029999999999994
 23
9.334500000000004
  0
SOLID
  8
label
  6
0
 10
17.229999999999993
 20
4.572000000000004
 11
17.229999999999993
 21
9.334500000000004
 12
17.429999999999993
 22
4.572000000000004
 13
17.429999999999993
 23
9.334500000000004
  0
SOLID
  8
label
  6
0
 10
17.629999999999992
 20
4.572000000000004
 11
17.629999999999992
 21
9.334500000000004
 12
18.02999999999999
 22
4.572000000000004
 13
18.02999999999999
 23
9.334500000000004
  0
SOLID
  8
label
  6
0
 10
18.22999999999999
 20
4.572000000000004
 11
18.22999999999999
 21
9.334500000000004
 12
18.42999999999999
 22
4.572000000000004
 13
18.42999999999999
 23
9.334500000000004
  0
SOLID
  8
label
  6
0
 10
18.829999999999988
 20
4.572000000000004
 11
18.829999999999988
 21
9.334500000000004
 12
19.029999999999987
 22
4.572000000000004
 13
19.029999999999987
 23
9.334500000000004
  0
SOLID
  8
label
  6
0
 10
19.229999999999986
 20
4.572000000000004
 11
19.229999999999986
 21
9.334500000000004
 12
19.629999999999985
 22
4.572000000000004
 13
19.629999999999985
 23
9.334500000000004
  0
SOLID
  8
label
  6
0
 10
19.829999999999984
 20
4.572000000000004
 11
19.829999999999984
 21
9.334500000000004
 12
20.029999999999983
 22
4.572000000000004
 13
20.029999999999983
 23
9.334500000000004
  0
SOLID
  8
label
  6
0
 10
20.229999999999983
 20
4.572000000000004
 11
20.229999999999983
 21
9.334500000000004
 12
20.429999999999982
 22
4.572000000000004
 13
20.429999999999982
 23
9.334500000000004
  0
SOLID
  8
label
  6
0
 10
20.82999999999998
 20
4.572000000000004
 11
20.82999999999998
 21
9.334500000000004
 12
21.02999999999998
 22
4.572000000000004
 13
21.02999999999998
 23
9.334500000000004
  0
SOLID
  8
label
  6
0
 10
21.42999999999998
 20
4.572000000000004
 11
21.42999999999998
 21
9.334500000000004
 12
21.629999999999978
 22
4.572000000000004
 13
21.629999999999978
 23
9.334500000000004
  0
SOLID
  8
label
  6
0
 10
21.829999999999977
 20
4.572000000000004
 11
21.829999999999977
 21
9.334500000000004
 12
22.229999999999976
 22
4.572000000000004
 13
22.229999999999976
 23
9.334500000000004
  0
SOLID
  8
label
  6
0
 10
22.429999999999975
 20
4.572000000000004
 11
22.429999999999975
 21
9.334500000000004
 12
22.629999999999974
 22
4.572000000000004
 13
22.629999999999974
 23
9.334500000000004
  0
SOLID
  8
label
  6
0
 10
22.829999999999973
 20
4.572000000000004
 11
22.829999999999973
 21
9.334500000000004
 12
23.029999999999973
 22
4.572000000000004
 13
23.029999999999973
 23
9.334500000000004
  0
SOLID
  8
label
  6
0
 10
23.42999999999997
 20
4.572000000000004
 11
23.42999999999997
 21
9.334500000000004
 12
23.62999999999997
 22
4.572000000000004
 13
23.62999999999997
 23
9.334500000000004
  0
SOLID
  8
label
  6
0
 10
23.82999999999997
 20
4.572000000000004
 11
23.82999999999997
 21
9.334500000000004
 12
24.02999999999997
 22
4.572000000000004
 13
24.02999999999997
 23
9.334500000000004
  0
SOLID
  8
label
  6
0
 10
24.22999999999997
 20
4.572000000000004
 11
24.22999999999997
 21
9.334500000000004
 12
24.629999999999967
 22
4.572000000000004
 13
24.629999999999967
 23
9.334500000000004
  0
SOLID
  8
label
  6
0
 10
25.029999999999966
 20
4.572000000000004
 11
25.029999999999966
 21
9.334500000000004
 12
25.229999999999965
 22
4.572000000000004
 13
25.229999999999965
 23
9.334500000000004
  0
SOLID
  8
label
  6
0
 10
25.429999999999964
 20
4.572000000000004
 11
25.429999999999964
 21
9.334500000000004
 12
25.629999999999963
 22
4.572000000000004
 13
25.629999999999963
 23
9.334500000000004
  0
SOLID
  8
label
  6
0
 10
26.029999999999962
 20
4.572000000000004
 11
26.029999999999962
 21
9.334500000000004
 12
26.22999999999996
 22
4.572000000000004
 13
26.22999999999996
 23
9.334500000000004
  0
SOLID
  8
label
  6
0
 10
26.42999999999996
 20
4.572000000000004
 11
26.42999999999996
 21
9.334500000000004
 12
26.62999999999996
 22
4.572000000000004
 13
26.62999999999996
 23
9.334500000000004
  0
SOLID
  8
label
  6
0
 10
27.02999999999996
 20
4.572000000000004
 11
27.02999999999996
 21
9.334500000000004
 12
27.429999999999957
 22
4.572000000000004
 13
27.429999999999957
 23
9.334500000000004
  0
SOLID
  8
label
  6
0
 10
27.629999999999956
 20
4.572000000000004
 11
27.629999999999956
 21
9.334500000000004
 12
27.829999999999956
 22
4.572000000000004
 13
27.829999999999956
 23
9.334500000000004
  0
SOLID
  8
label
  6
0
 10
28.229999999999954
 20
4.572000000000004
 11
28.229999999999954
 21
9.334500000000004
 12
28.429999999999954
 22
4.572000000000004
 13
28.429999999999954
 23
9.334500000000004
  0
SOLID
  8
label
  6
0
 10
28.629999999999953
 20
4.572000000000004
 11
28.629999999999953
 21
9.334500000000004
 12
28.829999999999952
 22
4.572000000000004
 13
28.829999999999952
 23
9.334500000000004
  0
SOLID
  8
label
  6
0
 10
29.02999999999995
 20
4.572000000000004
 11
29.02999999999995
 21
9.334500000000004
 12
29.42999999999995
 22
4.572000000000004
 13
29.42999999999995
 23
9.334500000000004
  0
SOLID
  8
label
  6
0
 10
29.82999999999995
 20
4.572000000000004
 11
29.82999999999995
 21
9.334500000000004
 12
30.029999999999948
 22
4.572000000000004
 13
30.029999999999948
 23
9.334500000000004
  0
SOLID
  8
label
  6
0
 10
30.429999999999946
 20
4.572000000000004
 11
30.429999999999946
 21
9.334500000000004
 12
30.629999999999946
 22
4.572000000000004
 13
30.629999999999946
 23
9.334500000000004
  0
SOLID
  8
label
  6
0
 10
30.829999999999945
 20
4.572000000000004
 11
30.829999999999945
 21
9.334500000000004
 12
31.029999999999944
 22
4.572000000000004
 13
31.029999999999944
 23
9.334500000000004
  0
SOLID
  8
label
  6
0
 10
31.229999999999944
 20
4.572000000000004
 11
31.229999999999944
 21
9.334500000000004
 12
31.429999999999943
 22
4.572000000000004
 13
31.429999999999943
 23
9.334500000000004
  0
SOLID
  8
label
  6
0
 10
31.82999999999994
 20
4.572000000000004
 11
31.82999999999994
 21
9.334500000000004
 12
32.029999999999944
 22
4.572000000000004
 13
32.029999999999944
 23
9.334500000000004
  0
SOLID
  8
label
  6
0
 10
32.22999999999995
 20
4.572000000000004
 11
32.22999999999995
 21
9.334500000000004
 12
32.629999999999946
 22
4.572000000000004
 13
32.629999999999946
 23
9.334500000000004
  0
SOLID
  8
label
  6
0
 10
32.82999999999995
 20
4.572000000000004
 11
32.82999999999995
 21
9.334500000000004
 12
33.02999999999995
 22
4.572000000000004
 13
33.02999999999995
 23
9.334500000000004
  0
SOLID
  8
label
  6
0
 10
33.229999999999954
 20
4.572000000000004
 11
33.229999999999954
 21
9.334500000000004
 12
33.42999999999996
 22
4.572000000000004
 13
33.42999999999996
 23
9.334500000000004
  0
SOLID
  8
label
  6
0
 10
33.829999999999956
 20
4.572000000000004
 11
33.829999999999956
 21
9.334500000000004
 12
34.02999999999996
 22
4.572000000000004
 13
34.02999999999996
 23
9.334500000000004
  0
SOLID
  8
label
  6
0
 10
34.22999999999996
 20
4.572000000000004
 11
34.22999999999996
 21
9.334500000000004
 12
34.62999999999996
 22
4.572000000000004
 13
34.62999999999996
 23
9.334500000000004
  0
SOLID
  8
label
  6
0
 10
34.82999999999996
 20
4.572000000000004
 11
34.82999999999996
 21
9.334500000000004
 12
35.029999999999966
 22
4.572000000000004
 13
35.029999999999966
 23
9.334500000000004
  0
SOLID
  8
label
  6
0
 10
35.429999999999964
 20
4.572000000000004
 11
35.429999999999964
 21
9.334500000000004
 12
35.62999999999997
 22
4.572000000000004
 13
35.62999999999997
 23
9.334500000000004
  0
SOLID
  8
label
  6
0
 10
36.029999999999966
 20
4.572000000000004
 11
36.029999999999966
 21
9.334500000000004
 12
36.22999999999997
 22
4.572000000000004
 13
36.22999999999997
 23
9.334500000000004
  0
SOLID
  8
label
  6
0
 10
36.42999999999997
 20
4.572000000000004
 11
36.42999999999997
 21
9.334500000000004
 12
36.629999999999974
 22
4.572000000000004
 13
36.629999999999974
 23
9.334500000000004
  0
SOLID
  8
label
  6
0
 10
36.629999999999974
 20
4.572000000000004
 11
36.629999999999974
 21
9.334500000000004
 12
38.229999999999976
 22
4.572000000000004
 13
38.229999999999976
 23
9.334500000000004
  0
LINE
  8
slits
  6
0
 10
32.243
 20
14.805
 11
32.243
 21
15.964
  0
LINE
  8
slits
  6
0
 10
32.243
 20
15.964
 11
32.359
 21
15.964
  0
LINE
  8
slits
  6
0
 10
32.359
 20
15.964
 11
32.359
 21
14.805
  0
LINE
  8
slits
  6
0
 10
32.359
 20
14.805
 11
32.243
 21
14.805
  0
LINE
  8
slits
  6
0
 10
18.257
 20
16.998
 11
18.257
 21
18.157
  0
LINE
  8
slits
  6
0
 10
18.257
 20
18.157
 11
18.373
 21
18.157
  0
LINE
  8
slits
  6
0
 10
18.373
 20
18.157
 11
18.373
 21
16.998
  0
LINE
  8
slits
  6
0
 10
18.373
 20
16.998
 11
18.257
 21
16.998
  0
LINE
  8
slits
  6
0
 10
37.691
 20
18.729
 11
37.691
 21
19.889
  0
LINE
  8
slits
  6
0
 10
37.691
 20
19.889
 11
37.807
 21
19.889
  0
LINE
  8
slits
  6
0
 10
37.807
 20
19.889
 11
37.807
 21
18.729
  0
LINE
  8
slits
  6
0
 10
37.807
 20
18.729
 11
37.691
 21
18.729
  0
LINE
  8
slits
  6
0
 10
27.610
 20
22.397
 11
27.610
 21
23.557
  0
LINE
  8
slits
  6
0
 10
27.610
 20
23.557
 11
27.726
 21
23.557
  0
LINE
  8
slits
  6
0
 10
27.726
 20
23.557
 11
27.726
 21
22.397
  0
LINE
  8
slits
  6
0
 10
27.726
 20
22.397
 11
27.610
 21
22.397
  0
LINE
  8
slits
  6
0
 10
36.150
 20
24.492
 11
36.150
 21
25.651
  0
LINE
  8
slits
  6
0
 10
36.150
 20
25.651
 11
36.266
 21
25.651
  0
LINE
  8
slits
  6
0
 10
36.266
 20
25.651
 11
36.266
 21
24.492
  0
LINE
  8
slits
  6
0
 10
36.266
 20
24.492
 11
36.150
 21
24.492
  0
LINE
  8
slits
  6
0
 10
11.192
 20
25.593
 11
11.192
 21
26.752
  0
LINE
  8
slits
  6
0
 10
11.192
 20
26.752
 11
11.308
 21
26.752
  0
LINE
  8
slits
  6
0
 10
11.308
 20
26.752
 11
11.308
 21
25.593
  0
LINE
  8
slits
  6
0
 10
11.308
 20
25.593
 11
11.192
 21
25.593
  0
LINE
  8
slits
  6
0
 10
35.827
 20
27.760
 11
35.827
 21
28.919
  0
LINE
  8
slits
  6
0
 10
35.827
 20
28.919
 11
35.943
 21
28.919
  0
LINE
  8
slits
  6
0
 10
35.943
 20
28.919
 11
35.943
 21
27.760
  0
LINE
  8
slits
  6
0
 10
35.943
 20
27.760
 11
35.827
 21
27.760
  0
LINE
  8
slits
  6
0
 10
41.524
 20
33.078
 11
41.524
 21
34.237
  0
LINE
  8
slits
  6
0
 10
41.524
 20
34.237
 11
41.640
 21
34.237
  0
LINE
  8
slits
  6
0
 10
41.640
 20
34.237
 11
41.640
 21
33.078
  0
LINE
  8
slits
  6
0
 10
41.640
 20
33.078
 11
41.524
 21
33.078
  0
LINE
  8
slits
  6
0
 10
28.883
 20
34.949
 11
28.883
 21
35.943
  0
LINE
  8
slits
  6
0
 10
28.883
 20
35.943
 11
29.214
 21
35.943
  0
LINE
  8
slits
  6
0
 10
29.214
 20
35.943
 11
29.214
 21
34.949
  0
LINE
  8
slits
  6
0
 10
29.214
 20
34.949
 11
28.883
 21
34.949
  0
LINE
  8
slits
  6
0
 10
41.782
 20
36.230
 11
41.782
 21
37.389
  0
LINE
  8
slits
  6
0
 10
41.782
 20
37.389
 11
41.898
 21
37.389
  0
LINE
  8
slits
  6
0
 10
41.898
 20
37.389
 11
41.898
 21
36.230
  0
LINE
  8
slits
  6
0
 10
41.898
 20
36.230
 11
41.782
 21
36.230
  0
LINE
  8
slits
  6
0
 10
33.646
 20
37.878
 11
33.646
 21
39.038
  0
LINE
  8
slits
  6
0
 10
33.646
 20
39.038
 11
33.762
 21
39.038
  0
LINE
  8
slits
  6
0
 10
33.762
 20
39.038
 11
33.762
 21
37.878
  0
LINE
  8
slits
  6
0
 10
33.762
 20
37.878
 11
33.646
 21
37.878
  0
LINE
  8
slits
  6
0
 10
38.911
 20
39.914
 11
38.911
 21
41.074
  0
LINE
  8
slits
  6
0
 10
38.911
 20
41.074
 11
39.027
 21
41.074
  0
LINE
  8
slits
  6
0
 10
39.027
 20
41.074
 11
39.027
 21
39.914
  0
LINE
  8
slits
  6
0
 10
39.027
 20
39.914
 11
38.911
 21
39.914
  0
LINE
  8
slits
  6
0
 10
34.005
 20
41.481
 11
34.005
 21
42.640
  0
LINE
  8
slits
  6
0
 10
34.005
 20
42.640
 11
34.121
 21
42.640
  0
LINE
  8
slits
  6
0
 10
34.121
 20
42.640
 11
34.121
 21
41.481
  0
LINE
  8
slits
  6
0
 10
34.121
 20
41.481
 11
34.005
 21
41.481
  0
LINE
  8
slits
  6
0
 10
36.166
 20
43.108
 11
36.166
 21
44.267
  0
LINE
  8
slits
  6
0
 10
36.166
 20
44.267
 11
36.282
 21
44.267
  0
LINE
  8
slits
  6
0
 10
36.282
 20
44.267
 11
36.282
 21
43.108
  0
LINE
  8
slits
  6
0
 10
36.282
 20
43.108
 11
36.166
 21
43.108
  0
LINE
  8
slits
  6
0
 10
39.420
 20
44.563
 11
39.420
 21
45.722
  0
LINE
  8
slits
  6
0
 10
39.420
 20
45.722
 11
39.536
 21
45.722
  0
LINE
  8
slits
  6
0
 10
39.536
 20
45.722
 11
39.536
 21
44.563
  0
LINE
  8
slits
  6
0
 10
39.536
 20
44.563
 11
39.420
 21
44.563
  0
LINE
  8
slits
  6
0
 10
29.116
 20
45.771
 11
29.116
 21
46.931
  0
LINE
  8
slits
  6
0
 10
29.116
 20
46.931
 11
29.232
 21
46.931
  0
LINE
  8
slits
  6
0
 10
29.232
 20
46.931
 11
29.232
 21
45.771
  0
LINE
  8
slits
  6
0
 10
29.232
 20
45.771
 11
29.116
 21
45.771
  0
LINE
  8
slits
  6
0
 10
39.938
 20
48.629
 11
39.938
 21
49.789
  0
LINE
  8
slits
  6
0
 10
39.938
 20
49.789
 11
40.054
 21
49.789
  0
LINE
  8
slits
  6
0
 10
40.054
 20
49.789
 11
40.054
 21
48.629
  0
LINE
  8
slits
  6
0
 10
40.054
 20
48.629
 11
39.938
 21
48.629
  0
LINE
  8
slits
  6
0
 10
27.963
 20
49.881
 11
27.963
 21
51.040
  0
LINE
  8
slits
  6
0
 10
27.963
 20
51.040
 11
28.079
 21
51.040
  0
LINE
  8
slits
  6
0
 10
28.079
 20
51.040
 11
28.079
 21
49.881
  0
LINE
  8
slits
  6
0
 10
28.079
 20
49.881
 11
27.963
 21
49.881
  0
LINE
  8
slits
  6
0
 10
20.616
 20
52.488
 11
20.616
 21
53.647
  0
LINE
  8
slits
  6
0
 10
20.616
 20
53.647
 11
20.732
 21
53.647
  0
LINE
  8
slits
  6
0
 10
20.732
 20
53.647
 11
20.732
 21
52.488
  0
LINE
  8
slits
  6
0
 10
20.732
 20
52.488
 11
20.616
 21
52.488
  0
LINE
  8
slits
  6
0
 10
13.839
 20
54.061
 11
13.839
 21
55.220
  0
LINE
  8
slits
  6
0
 10
13.839
 20
55.220
 11
13.955
 21
55.220
  0
LINE
  8
slits
  6
0
 10
13.955
 20
55.220
 11
13.955
 21
54.061
  0
LINE
  8
slits
  6
0
 10
13.955
 20
54.061
 11
13.839
 21
54.061
  0
LINE
  8
slits
  6
0
 10
22.837
 20
55.413
 11
22.837
 21
56.573
  0
LINE
  8
slits
  6
0
 10
22.837
 20
56.573
 11
22.953
 21
56.573
  0
LINE
  8
slits
  6
0
 10
22.953
 20
56.573
 11
22.953
 21
55.413
  0
LINE
  8
slits
  6
0
 10
22.953
 20
55.413
 11
22.837
 21
55.413
  0
LINE
  8
slits
  6
0
 10
32.191
 20
58.197
 11
32.191
 21
59.356
  0
LINE
  8
slits
  6
0
 10
32.191
 20
59.356
 11
32.307
 21
59.356
  0
LINE
  8
slits
  6
0
 10
32.307
 20
59.356
 11
32.307
 21
58.197
  0
LINE
  8
slits
  6
0
 10
32.307
 20
58.197
 11
32.191
 21
58.197
  0
LINE
  8
slits
  6
0
 10
39.695
 20
59.549
 11
39.695
 21
60.708
  0
LINE
  8
slits
  6
0
 10
39.695
 20
60.708
 11
39.811
 21
60.708
  0
LINE
  8
slits
  6
0
 10
39.811
 20
60.708
 11
39.811
 21
59.549
  0
LINE
  8
slits
  6
0
 10
39.811
 20
59.549
 11
39.695
 21
59.549
  0
LINE
  8
slits
  6
0
 10
39.620
 20
61.329
 11
39.620
 21
62.488
  0
LINE
  8
slits
  6
0
 10
39.620
 20
62.488
 11
39.736
 21
62.488
  0
LINE
  8
slits
  6
0
 10
39.736
 20
62.488
 11
39.736
 21
61.329
  0
LINE
  8
slits
  6
0
 10
39.736
 20
61.329
 11
39.620
 21
61.329
  0
LINE
  8
slits
  6
0
 10
32.813
 20
63.077
 11
32.813
 21
64.237
  0
LINE
  8
slits
  6
0
 10
32.813
 20
64.237
 11
32.929
 21
64.237
  0
LINE
  8
slits
  6
0
 10
32.929
 20
64.237
 11
32.929
 21
63.077
  0
LINE
  8
slits
  6
0
 10
32.929
 20
63.077
 11
32.813
 21
63.077
  0
LINE
  8
slits
  6
0
 10
34.936
 20
64.596
 11
34.936
 21
65.755
  0
LINE
  8
slits
  6
0
 10
34.936
 20
65.755
 11
35.052
 21
65.755
  0
LINE
  8
slits
  6
0
 10
35.052
 20
65.755
 11
35.052
 21
64.596
  0
LINE
  8
slits
  6
0
 10
35.052
 20
64.596
 11
34.936
 21
64.596
  0
LINE
  8
slits
  6
0
 10
26.491
 20
66.346
 11
26.491
 21
67.505
  0
LINE
  8
slits
  6
0
 10
26.491
 20
67.505
 11
26.607
 21
67.505
  0
LINE
  8
slits
  6
0
 10
26.607
 20
67.505
 11
26.607
 21
66.346
  0
LINE
  8
slits
  6
0
 10
26.607
 20
66.346
 11
26.491
 21
66.346
  0
LINE
  8
slits
  6
0
 10
12.069
 20
68.051
 11
12.069
 21
69.045
  0
LINE
  8
slits
  6
0
 10
12.069
 20
69.045
 11
12.401
 21
69.045
  0
LINE
  8
slits
  6
0
 10
12.401
 20
69.045
 11
12.401
 21
68.051
  0
LINE
  8
slits
  6
0
 10
12.401
 20
68.051
 11
12.069
 21
68.051
  0
LINE
  8
slits
  6
0
 10
36.216
 20
69.773
 11
36.216
 21
70.932
  0
LINE
  8
slits
  6
0
 10
36.216
 20
70.932
 11
36.332
 21
70.932
  0
LINE
  8
slits
  6
0
 10
36.332
 20
70.932
 11
36.332
 21
69.773
  0
LINE
  8
slits
  6
0
 10
36.332
 20
69.773
 11
36.216
 21
69.773
  0
LINE
  8
slits
  6
0
 10
26.744
 20
70.977
 11
26.744
 21
72.137
  0
LINE
  8
slits
  6
0
 10
26.744
 20
72.137
 11
26.860
 21
72.137
  0
LINE
  8
slits
  6
0
 10
26.860
 20
72.137
 11
26.860
 21
70.977
  0
LINE
  8
slits
  6
0
 10
26.860
 20
70.977
 11
26.744
 21
70.977
  0
LINE
  8
slits
  6
0
 10
8.658
 20
72.268
 11
8.658
 21
73.261
  0
LINE
  8
slits
  6
0
 10
8.658
 20
73.261
 11
8.989
 21
73.261
  0
LINE
  8
slits
  6
0
 10
8.989
 20
73.261
 11
8.989
 21
72.268
  0
LINE
  8
slits
  6
0
 10
8.989
 20
72.268
 11
8.658
 21
72.268
  0
LINE
  8
slits
  6
0
 10
34.342
 20
74.318
 11
34.342
 21
75.312
  0
LINE
  8
slits
  6
0
 10
34.342
 20
75.312
 11
34.673
 21
75.312
  0
LINE
  8
slits
  6
0
 10
34.673
 20
75.312
 11
34.673
 21
74.318
  0
LINE
  8
slits
  6
0
 10
34.673
 20
74.318
 11
34.342
 21
74.318
  0
LINE
  8
slits
  6
0
 10
30.934
 20
75.393
 11
30.934
 21
76.387
  0
LINE
  8
slits
  6
0
 10
30.934
 20
76.387
 11
31.265
 21
76.387
  0
LINE
  8
slits
  6
0
 10
31.265
 20
76.387
 11
31.265
 21
75.393
  0
LINE
  8
slits
  6
0
 10
31.265
 20
75.393
 11
30.934
 21
75.393
  0
LINE
  8
slits
  6
0
 10
19.630
 20
76.640
 11
19.630
 21
77.799
  0
LINE
  8
slits
  6
0
 10
19.630
 20
77.799
 11
19.746
 21
77.799
  0
LINE
  8
slits
  6
0
 10
19.746
 20
77.799
 11
19.746
 21
76.640
  0
LINE
  8
slits
  6
0
 10
19.746
 20
76.640
 11
19.630
 21
76.640
  0
LINE
  8
slits
  6
0
 10
36.111
 20
79.197
 11
36.111
 21
80.356
  0
LINE
  8
slits
  6
0
 10
36.111
 20
80.356
 11
36.227
 21
80.356
  0
LINE
  8
slits
  6
0
 10
36.227
 20
80.356
 11
36.227
 21
79.197
  0
LINE
  8
slits
  6
0
 10
36.227
 20
79.197
 11
36.111
 21
79.197
  0
ENDSEC
  0
EOF
